<?xml version="1.0" encoding="UTF-8"?>
<svg id="Layer_1" data-name="Layer 1" xmlns="http://www.w3.org/2000/svg" viewBox="0 0 734.97 671.08">
  <defs>
    <style>
      .cls-1 {
        fill: #132a50;
      }
    </style>
  </defs>
  <path class="cls-1" d="M632.82,342.77c-1.85-1.46-3.71-2.93-5.56-4.36-1.4,3.15-2.37,6.6-4.26,9.43-4.45,6.66-8.94,13.33-14.11,19.44-11.22,13.33-11.38,13.17-20.25-1.4-.2-.33-1.24-.16-2.67-.26,0,4.45-.46,8.94.1,13.3,1.4,11.05-2.57,18.17-12.84,23.41-13.56,6.93-26.24,15.61-39.47,23.28-3.06,1.79-8.55,4.45-9.75,3.32-2.96-2.76-5.01-7.38-5.56-11.48-.46-3.45,1.76-7.25,2.76-10.89,3.48-12.71,6.96-25.42,10.47-38.1l-3.25-.98c-4.19,10.08-9.04,19.93-12.42,30.27-3.71,11.41-7.12,23.12-8.65,34.98-.98,7.51-2.54,12.55-10.08,14.89-7.67,2.37-15.02,5.82-22.79,7.74-20.84,5.1-40.83,11.96-57.84,25.72-.26.2-1.11-.33-3.12-.94,4.55-8.78,8.55-17.59,13.49-25.85,10.27-17.2,23.6-29.98,43.86-36.38,9.56-2.99,18.08-12.58,24.51-21.13,5.88-7.84,9.49-17.98,12-27.67,2.44-9.4,2.21-19.51,3.19-29.33-1.5-.1-2.99-.2-4.49-.29-.65,5.36-.33,11.15-2.15,16.09-5.43,14.47-11.15,28.87-18.04,42.69-1.69,3.35-8.23,4.29-12.52,6.37-.65-1.01-1.3-2.05-1.92-3.06,11.93-20.09,20.81-40.77,13.92-66.65-12.68,12.65-4.94,32.87-20.35,42.69-3.48-6.34-6.66-12.13-9.85-17.91-.94.26-1.89.52-2.83.78.29,6.11.1,12.29,1.04,18.3,2.02,12.42-.29,22.6-11.67,29.85-7.48,4.78-12.81,4.1-14.92-4.58-1.76-7.15-1.3-15.02-.75-22.47.49-6.47,2.44-12.81,3.74-19.21-11.25,11.93-16.26,37.39-13.75,55.21.46,3.32,1.3,7.64-.29,9.95-8.23,11.96-17.2,23.44-26.14,35.41-1.07-1.56-1.76-2.34-2.18-3.25-10.34-22.37-.52-45.58-2.54-68.31-.2-2.41,2.99-5.3,4.94-7.67,8.42-10.08,10.73-21.46,7.84-35.63-1.14,6.99-1.46,12.65-3.09,17.88-2.34,7.51-8.42,9.98-15.8,8.62-8.1-1.5-6.4-7.77-5.75-13.3.68-5.88,2.02-11.74,2.15-17.62.1-5.17-1.11-10.34-1.92-16.97-2.96,2.28-4.36,2.8-4.45,3.48-2.6,18.17-16.03,35.99-1.72,54.85,1.89,2.47,2.89,7.02,2.02,9.92-1.3,4.36-3.9,9.04-7.41,11.74-1.59,1.2-6.96-1.37-9.98-3.28-8.65-5.46-8.71-14.18-8.23-23.25.46-8.58.1-17.2.1-25.81-1.66.13-3.32.29-4.97.42,2.08,21.98-11.05,45.35,10.79,65.58,11.05,10.21,11.61,30.01,4.23,42.4-2.5-3.32-4.78-6.21-6.96-9.17-6.05-8.1-11.44-16.78-18.21-24.22-15.57-17.07-16.55-23.31-8.06-44.93,2.76-7.06,3.28-15.31,3.45-23.05.16-7.09-1.43-14.24-2.28-21.36-8.45,1.69-3.64,7.87-4,12.32-.72,8.78-.16,18.01-2.8,26.2-2.6,8.06-8.23,15.25-13.13,22.4-1.07,1.59-4.94,2.63-6.99,2.02-13.39-4.1-19.51-20.16-12.48-32.28,2.96-5.14,6.7-9.79,9.66-14.92,5.62-9.75,5.72-20.19,3.8-31.11-4.78,15.57-6.08,32.67-25.33,39.63-2.8-10.44-5.43-20.25-8.03-30.11-1.63.13-3.22.23-4.84.39-.98,5.1-2.83,10.27-2.76,15.38.65,33.55,18.37,58.81,42.04,79.91,16.03,14.27,24.64,32.06,32.15,49.97-14.63-6.66-29.07-14.14-44.18-19.8-14.21-5.3-23.67-14.18-28.35-28.45-2.47-7.64-4.62-15.41-7.71-22.79-4.49-10.66-12.35-18.47-22.53-23.96.23,2.31,1.07,4.19,2.47,5.43,13.98,12.29,17.82,28.64,18.53,46.17.39,9.14-2.21,10.73-10.53,6.53-12.65-6.4-23.8-14.11-29.68-28.09-4.19-9.95-10.05-19.15-15.15-28.71-.91.16-1.82.36-2.73.55v23.77c-16.87-5.23-31.7-14.6-42.49-27.96-7.64-9.46-13.82-20.06-21.1-29.81-3.09-4.13-7.32-7.45-11.02-11.12-1.82,3.58-2.05,5.75-1.27,7.48,11.31,25.33,24.74,49.26,47.08,66.81,9.04,7.12,18.43,13.82,27.34,21.1,2.47,2.02,5.95,6.11,5.3,7.9-1.04,2.89-4.94,6.24-8,6.7-9.98,1.4-20.09,1.53-30.14,2.21-3.74.23-7.51.65-11.25.98.03,1.04.07,2.08.1,3.12,20.84,2.7,41.36,7.15,62.91,4.68,9.23-1.07,19.83-.16,28.22,3.51,16.55,7.22,32.15,16.74,47.86,25.78,31.02,17.85,44.02,45.48,42.46,80.53-.26,6.57-.59,13.43-2.76,19.51-8.62,24.35-20.55,45.42-46.82,56.08-18.17,7.38-34.92,15.64-55.73,14.73-27.11-1.2-54.36.94-81.54,1.82-2.28.07-4.55,1.37-6.79,2.08,3.06,2.47,5.66,2.86,8.29,2.86,51.21-.1,102.41-.2,153.59-.36,10.7-.03,22.01,2.05,30.63-7.87-.42,2.31-.85,4.58-1.33,7.09h93.28v-7.09c7.93,2.63,15.57,7.12,23.34,7.38,45.94,1.4,91.91,1.89,137.92,2.5,3.61.07,7.28-1.01,10.92-1.56,0-1.27-.07-2.57-.07-3.8-14.66-2.08-29.29-5.27-44.02-6.01-27.64-1.4-53.77-8.16-78.13-20.68-12.48-6.44-29.16-9.72-30.27-28.87-.13-1.98-2.6-4.19-4.52-5.56-8.1-5.85-9.69-13.98-8.84-23.18.42-4.52,1.07-9.14.49-13.56-3.61-28.64,8.52-52.28,28.06-70.26,22.37-20.65,48.7-34.27,81.9-25.29,18.3,4.97,36.77-.78,54.82-6.14-10.31-1.72-20.74-.62-30.76-2.15-6.11-.94-11.57-5.98-17.33-9.17,3.64-4.19,6.6-9.33,11.02-12.39,31.31-21.82,58.85-46.95,75.49-82.16,2.7-5.69,4.75-11.7,7.09-17.56l-.06.03Z"/>
  <polygon class="cls-1" points="321.55 339.65 321.58 339.65 321.58 339.69 321.55 339.65"/>
  <path class="cls-1" d="M321.78,339.88l-.2-.2c0,.1,0,.16.03.26.07,0,.13,0,.2-.03h0l-.03-.03Z"/>
  <path class="cls-1" d="M725.48,380.13c.81-23.31-18.3-40.51-45.65-41.1-18.76-.42-37.94,20.68-38.46,42.3-.55,23.05,16.74,41.1,40.31,42.07,23.96.98,42.88-17.72,43.76-43.24l.03-.03ZM708.31,376.91c.85.78.91,1.89.16,2.93-.13.2-.33.39-.46.59-.26.42-.59.55-1.14.62-.68.07-1.43.33-1.95.78-2.41,1.92-4.71,3.9-7.09,5.88-.26.2-.52.42-.91.75v-3.9c0-.2.2-.46.36-.59,2.7-2.34,5.43-4.65,8.16-6.93.94-.81,2.08-.85,2.89-.1l-.03-.03ZM696.9,379.19s.07-.23.13-.29c.52-.49,1.14-.75,1.85-.62.75.13,1.3.55,1.53,1.27.07.16,0,.49-.13.59-1.07.94-2.15,1.85-3.38,2.93v-3.87ZM694.1,362.87c-.16,1.37-1.37,2.24-2.76,2.02v-3.61h1.56c.78.07,1.3.78,1.2,1.59h0ZM679.05,352.72c2.93-2.18,6.76-2.31,9.95-.39,2.7,1.63,4.52,5.17,4.06,8h-1.79c-1.63-.07-3.25-.07-4.84-.26-1.79-.23-3.35-1.07-4.71-2.21-.46-.36-.75-.39-1.17,0-.55.52-1.24.94-1.76,1.5-.91,1.04-2.02,1.11-3.35.91-.07-3.12,1.14-5.66,3.61-7.54ZM684.84,371.48c-3.12.23-5.95-1.79-6.44-4.78-.26-1.79-.13-3.64-.16-5.46,0-.13.1-.29.23-.39.85-.75,1.72-1.46,2.67-2.21,2.7,2.18,5.79,2.86,9.23,2.63v1.59c0,1.01.03,2.02,0,2.99-.13,2.99-2.57,5.46-5.49,5.66l-.03-.03ZM686.01,375.68c-1.14.72-2.31.68-3.45,0-1.43-.94-1.63-2.34-1.46-3.97,2.15.98,4.26,1.01,6.44-.03.16,1.69-.07,3.09-1.53,4ZM674.69,361.96c.33-.65.98-.81,2.57-.65v3.54c-.94.23-1.76-.07-2.31-.85-.46-.62-.62-1.3-.26-2.05h0ZM672.74,378.57c.29-3.35,3.09-5.88,6.5-6.11h.88c-.07,1.53.39,2.8,1.59,3.74.78.65,1.69.98,2.7.94,2.34-.07,3.74-1.59,4.19-4.65,3.64-.33,7.09,2.54,7.32,6.34.2,3.41.03,6.86.03,10.34h-7.35s.1-.26.16-.39c1.01-1.95-.2-4.16-2.41-4.16-2.89-.03-5.79.07-8.68.1h-.42v-2.8c0-.39.2-1.04-.42-1.04-.68,0-.49.65-.49,1.07v2.86c-1.27.42-2.44.81-3.64,1.2,0-2.47-.16-4.97.03-7.45ZM673.75,403.47c-.2.49-.42.65-.98.65h-16.84c1.01-1.79,1.85-3.51,2.86-5.07,3.06-4.78,7.15-8.39,12.16-11.02,1.82-.94,3.64-1.92,5.72-2.21,1.24-.16,2.47-.23,3.71-.26,1.95-.03,3.9-.03,5.82,0,1.53.03,2.41,1.4,1.79,2.67-.36.75-1.01,1.04-1.82,1.04h-7.25c-.2,0-.42-.03-.59.07-.16.07-.33.26-.33.42s.16.36.33.42c.16.1.39.07.59.07h16.68c.42,0,.88-.2,1.2-.46,2.89-2.37,5.72-4.78,8.62-7.15,1.27-1.07,2.89-.72,3.35.75.23.75.07,1.43-.49,1.98-2.99,3.02-5.95,6.05-9.04,9.01-2.02,1.95-4.58,2.76-7.35,3.09-4.26.49-8.49,1.04-12.71,1.66-2.63.39-4.49,1.95-5.46,4.45l.03-.1Z"/>
  <path class="cls-1" d="M688.02,357.5c.29,0,.59.07.88,0,.2-.07.36-.26.52-.39-.16-.16-.33-.39-.52-.49-.13-.07-.36,0-.52,0-1.72.1-3.25-.42-4.55-1.56-.16-.13-.52-.07-.81-.1.1.26.1.62.26.78,1.3,1.24,2.89,1.82,4.71,1.79l.03-.03Z"/>
  <path class="cls-1" d="M685.78,367.06c-1.11.72-1.85.72-2.96,0-.16-.13-.49,0-.75-.03.07.26.03.65.2.75.62.36,1.3.65,2.02.98.72-.33,1.4-.59,2.02-.98.16-.1.13-.46.2-.72-.23,0-.55-.1-.75.03l.03-.03Z"/>
  <path class="cls-1" d="M682.43,363.58c0-.49-.42-.91-.88-.91-.49,0-.98.46-.98.94s.49.94.98.94c.46,0,.88-.46.88-.94v-.03Z"/>
  <path class="cls-1" d="M687.14,362.64c-.49-.03-.94.39-.94.91s.42.98.94.94c.49,0,.88-.42.91-.94,0-.49-.39-.91-.88-.94l-.03.03Z"/>
  <path class="cls-1" d="M189.81,381.53c23.18.39,44.51-19.44,43.57-42.23-.88-21.36-16.09-40.8-41.1-41.62-23.8-.75-42.98,17.59-43.31,41.29-.29,23.12,17.98,42.17,40.83,42.56ZM202.52,318.55c.65-.78,1.37-1.53,2.02-2.34.16-.2.16-.52.29-.75.1-.2.33-.46.46-.46.39,0,.36.33.23.62-.07.16-.07.36,0,.55.26-.33.52-.59.78-.91.13.13.2.2.16.2-.13.85.2,1.53.52,2.28.55,1.24,1.04,2.54,1.46,3.84.59,1.59,1.37,3.02,2.7,4.13.39.33.72.78,1.01,1.24.39.65.91,1.04,1.66,1.24.33.1.65.2.98.29,1.69.52,2.7,1.76,3.06,3.41.39,1.72.81,3.41,1.43,5.04.16.46-.16,1.14-.26,1.72h-.23c-.13-.49-.26-.98-.39-1.46-.03-.13,0-.36-.1-.39-.68-.36-.39-.98-.46-1.5-.13-1.2-.26-2.44-.39-3.64h-.23c-.07.59-.1,1.17-.13,1.76-.07,1.11-.26,2.18.2,3.32.23.59,0,1.37.07,2.02.16,1.2.46,2.41.59,3.64.07.65,0,1.3-.13,1.95-.03.13-.55.16-.88.26-.07-.2-.16-.42-.13-.59.03-.46.2-.88.2-1.33.07-1.89-.33-3.67-1.01-5.46-.07.26-.16.52-.2.81-.13,1.59-.23,3.19-.39,4.78-.07.59-.1,1.24-.39,1.76-.29.52-.91.29-1.5.1,1.04-1.33.98-2.93,1.27-4.42.46-2.31-.42-4.36-1.4-6.37-.07-.13-.26-.16-.42-.23h-.07c-1.5.23-1.63.23-1.59,1.79,0,1.3-.03,2.6-.1,3.9-.03,1.24.16,2.47.23,3.71,0,.23-.07.49-.13.72-.03.16-.13.29-.1.46.07.78,0,.85-.78.85-.59,0-1.2-.03-1.82-.07-.1,0-.16-.07-.23-.1,1.11-2.11.81-4.36.68-6.6-.03-.72.03-1.43-.1-2.11-.26-1.27-.59-2.54-.94-3.77-.23-.85-.36-1.66,0-2.47.33-.75.26-1.43-.16-2.15-1.14-1.95-1.59-4.06-1.72-6.27-.07-.68-.26-1.37-.46-2.05-.1-.36-.39-.52-.81-.42-.62.13-1.24.26-1.85.33-.23.03-.49-.07-.75-.1.07-.23.07-.49.2-.68l.06-.03ZM200.44,351.62s.16.03.33.07c-.1-.23-.16-.42-.23-.59-.16-.46,0-.68.52-.55.42.13.81.36,1.27.52,0,0,.03-.03.07-.07.72-.68,1.43-.75,2.21-.13.36.26.68.29,1.04.2s.72-.16,1.07-.29c.2-.07.29,0,.33.2.13.36,0,.65-.23.88-.29.29-.62.55-1.07.52-.07,0-.16,0-.13,0-.13.46-.2.85-.33,1.24-.2.52-.16,1.04.1,1.53.16.33.33.65.52.98.16.29.1.46-.2.55-.23.1-.46.16-.65.23-.59.23-1.14.13-1.69-.13-.23-.1-.39-.07-.52.13-.68.75-1.04,1.63-1.24,2.6-.13.52-.29,1.04-.46,1.53-.26.72-.78,1.14-1.53,1.24-.26.03-.29.16-.33.39-.1.85-.26,1.69-.39,2.5,0,.13-.03.29,0,.42.1.65.2,1.3.52,1.89.1.13.1.29.2.52-.42,0-.75.07-1.07.07-.1,0-.2-.13-.26-.2-.1-.1-.2-.2-.33-.29.39-1.89-.1-3.71-.59-5.56h-.1s-.1.26-.16.39c-.33.85-.65,1.72-.98,2.6,0,.07-.07.13-.07.2,0,.68,0,1.4.07,2.08,0,.13.16.26.23.39.13.23.26.49.42.72,0,.03-.07.07-.07.1-.42,0-.81.03-1.2,0-.26-.03-.55-.46-.55-.72,0-.72.07-1.43.07-2.15s-.03-1.5-.07-2.28c0-.46-.03-.91-.03-1.37s-.2-.68-.65-.68c-.55-.03-1.01.23-1.46.46-.39.2-.78.42-1.2.55-.81.29-1.66.26-2.41-.13-.36-.16-.59-.16-.85.16-.1.1-.16.16-.26.23-.36.26-.59.55-.49,1.04,0,.1-.13.2-.16.29-.1-.1-.16-.2-.23-.29v-.1c0-.2-.07-.36-.26-.39-.23,0-.33.16-.33.39,0,.13,0,.26-.03.36-.07.1-.16.23-.26.23-.07,0-.23-.16-.23-.23.13-.59-.26-.68-.68-.75-.26-.07-.52-.16-.81-.29-.1.26-.2.52-.26.78-.13.68-.16,1.37.23,1.98.07.07.07.16.1.26.1.78.36,1.5.75,2.18.2.33.16.39-.2.46-.23.03-.46.07-.65.07-.26,0-.39-.07-.49-.39-.2-.72-.29-1.43-.65-2.08-.2-.33-.33-.75-.49-1.11v2.05c0,.23.16.42.29.62.1.16.2.33.29.49-.49.46-1.2.36-1.5-.26,0-.03-.07-.1-.1-.13-.26-.13-.29-.39-.29-.62v-3.54c0-.2-.03-.42-.1-.59-.13-.36-.13-.72,0-1.04.33-.78.42-1.56.16-2.37-.39-1.24-.75-2.47-1.07-3.74-.13-.46-.07-.91-.1-1.37v-.49h-.16c0,.2-.07.39-.07.55-.16,2.15,0,4.32.16,6.47.07.68.1,1.37.16,2.05.1.91-.13,1.76-.68,2.47h-.07c-.07-.81-.13-1.59-.13-2.41,0-.39.13-.78.13-1.17.03-.81.07-1.66,0-2.5-.1-1.14-.26-2.28-.39-3.41-.1-1.11,0-2.18.36-3.25.36-1.17,1.27-1.79,2.5-1.79,1.07,0,2.15.1,3.25.26,1.07.2,2.18.16,3.28.2,1.01.03,2.05.03,3.06,0,.55,0,1.07-.13,1.63-.16,2.31-.2,4.62-.1,6.93.36h-.1ZM163.02,333.96c.13-2.02.2-4.03.52-6.01.42-2.54,1.79-4.55,4.16-5.72,1.76-.88,3.61-1.14,5.53-.59,1.46.42,2.93.59,4.23,0,.16-.49.16-.94.39-1.17,1.27-1.33,2.76-2.02,4.62-1.59,1.07.23,2.11.52,3.19.59,1.37.07,2.37.59,3.22,1.63,1.46,1.82,2.11,4.03,2.99,6.14.39.88.52,1.66,1.66,1.66,0,0,.03.1.07.2-.26.07-.55.16-.81.23.1.16.2.29.33.52-.94-.07-1.07.52-1.17,1.17-.23,1.89-.49,3.74-.78,5.59-.1.65-.23,1.37-.52,1.95-.26.49-.75.91-1.24,1.2-.23.13-.85-.07-1.04-.29-.13-.16.07-.72.23-1.01.13-.16.49-.16.75-.26.1,0,.16,0,.26.03,0-2.89.1-5.75.1-8.65,0-.2-.2-.42-.36-.59-1.04-1.2-2.6-1.14-3.84-1.79-.16.65-.13,1.46-.46,1.66-.42.23-1.14,0-1.76-.07-.07,0-.1.03-.16.03-.55.94-.49,1.85-.2,2.89.65,2.18,1.14,4.39,1.69,6.6.1.39.1.78.03,1.14-.13.78.03,1.37.68,1.85.16.13.29.52.23.68-.1.2-.42.36-.65.39-.75.03-1.46,0-2.21-.03-.62,0-.72-.33-.65-.91.1-.65.1-1.33,0-1.98-.16-.75-.49-1.5-.75-2.24-.16-.46-.39-.91-.59-1.37-.07,0-.16,0-.23.03-.16.68-.29,1.37-.46,2.05-.1.42-.1.88-.26,1.27-.39.75-.39,1.4.16,2.11.42.55.23.91-.46,1.01s-1.37.13-2.05.1c-.78-.03-1.01-.49-.72-1.2.2-.42.36-.85.46-1.3.16-1.01.33-2.05.42-3.06.16-1.33.33-2.67.49-4.19-1.11.39-1.92.68-2.7.88-1.24.33-2.5.52-3.74.85-.55.13-1.24.39-1.53.81-1.01,1.37-.62,4.62.59,5.82.52.52.46,1.07-.29,1.2-.85.13-1.72.13-2.6.1-.2,0-.52-.36-.52-.55-.07-1.07,0-2.18,0-3.28,0-.75-.07-1.46-.1-2.21h-.36c-.23.55-.52,1.11-.68,1.72-.33,1.11-.75,2.21.13,3.32.39.49,0,.98-.59,1.04-.52.1-1.11.07-1.63,0-1.11-.1-1.27-.29-.98-1.43.07-.23,0-.49.07-.72.1-.49.13-1.04.36-1.46.68-1.11,1.04-2.28,1.01-3.58-.03-.72.1-1.46.1-2.18-.07-1.04-.16-2.05-.23-3.09h-.26s-.1.2-.1.26c-.16,1.3-.36,2.6-.46,3.9-.07.78.03,1.56.13,2.34.13.85-.1,1.63-.68,2.11,0-1.5-.07-3.02,0-4.52v-.03Z"/>
  <path class="cls-1" d="M210.13,338.32c-.03.29-.1.59-.1.85,0,1.04.1,2.05.07,3.09,0,.49-.2.94-.26,1.43-.03.26,0,.55,0,.98.72-.65.94-5.17.29-6.34Z"/>
  <path class="cls-1" d="M595.98,323.85c-.03-23.28-18.5-41.88-41.84-42.14-22.43-.26-42.49,19.28-42.69,41.58-.2,22.5,20.29,43.14,42.62,42.98,22.47-.16,41.91-19.86,41.88-42.43h.03ZM553.29,297.29c2.08.36,4.1.68,6.11,1.04,2.8.49,4.97,1.95,6.53,4.32.91,1.37,1.43,2.89,1.53,4.52.07,1.2,0,2.41,0,3.64-2.99-3.02-5.95-5.98-8.97-9.07-.49.59-.88.98-1.37,1.53,2.76,2.76,5.62,5.59,8.55,8.49-1.82-.33-3.51-.52-5.2-.94-4.19-1.07-7.15-4.88-7.22-9.23v-4.32l.03.03ZM545.39,324.66v5.3h-2.89c-.16,0-.39-.2-.42-.33-.42-1.53-.42-3.06,0-4.58.03-.13.26-.36.39-.36,1.01-.03,1.98,0,2.93,0v-.03ZM542.99,322.88c1.17-1.98,2.76-3.25,4.75-3.93-.55,1.2-1.14,2.44-1.72,3.67-.07.13-.29.23-.46.23h-2.57v.03ZM545.65,331.75s.29.16.36.26c.59,1.2,1.14,2.44,1.72,3.64-1.98-.72-3.58-1.98-4.75-3.93h2.67v.03ZM547.38,329.93c-.36-1.72-.36-3.48,0-5.23h6.57c.39,1.79.36,3.51,0,5.23h-6.57ZM547.83,322.84c.59-1.66,1.46-3.02,2.83-4.19,1.37,1.11,2.18,2.54,2.83,4.19h-5.66ZM553.55,318.94c1.98.68,3.54,1.98,4.75,3.93h-2.8c-.1,0-.2-.13-.23-.23-.59-1.24-1.14-2.47-1.72-3.67v-.03ZM553.45,331.78c-.59,1.63-1.46,3.02-2.8,4.16-1.33-1.14-2.21-2.5-2.8-4.16h5.59ZM554.17,334.42c.39-.75.68-1.53,1.04-2.28.1-.16.26-.39.42-.39h2.67c-1.2,1.95-2.76,3.22-4.94,4,.33-.52.62-.91.81-1.33h0ZM555.89,329.96v-5.3h2.99c.13,0,.29.23.33.39.39,1.5.39,3.02,0,4.52-.03.16-.26.36-.39.36h-2.93v.03ZM526.67,318.42c1.24.29,2.37.59,3.41.85.78-1.43,1.4-2.89,2.24-4.16,4.55-6.89,11.05-10.14,19.28-10.01.36,0,.55.13.72.49.55,1.14,1.17,2.21,1.76,3.28-9.36-1.14-16.19,2.54-20.38,11.25.68.2,1.24.36,1.79.49.55.16,1.14.26,1.63.39-2.6,2.63-5.2,5.23-7.84,7.87-.85-3.41-1.72-6.86-2.63-10.47l.03.03ZM571.08,335.3c-2.21,5.62-5.98,9.82-11.51,12.29-4.36,1.95-8.88,2.37-13.52,1.43-9.33-1.92-15.02-9.04-16.65-14.99,1.07-.33,2.15-.68,3.19-1.01,3.77,9.04,10.4,13.69,20.22,12.71,7.02-.68,11.8-4.84,14.7-11.31-.65-.16-1.2-.33-1.76-.46s-1.11-.29-1.56-.42c2.57-2.57,5.17-5.17,7.8-7.77.85,3.35,1.69,6.79,2.6,10.37-1.2-.29-2.37-.55-3.54-.85h.03ZM578.49,311.76c-.72,1.56-1.85,2.7-3.48,3.25-1.14.39-2.34.65-3.61.81,1.59-1.53,3.19-3.09,4.81-4.65-.55-.52-.94-.88-1.43-1.4-.65.68-1.3,1.4-1.95,2.05-.98,1.01-1.95,1.98-2.96,2.96-.42.39-.59.78-.59,1.33.03,1.98,0,3.97,0,5.92v.75h-1.76v-9.72h1.72s.1-.26.13-.39c.62-3.41,2.67-5.56,5.95-6.5,1.17-.33,2.41-.55,3.71-.85-.16,2.18.39,4.36-.55,6.4v.03Z"/>
  <path class="cls-1" d="M430.95,354.64c25.62.42,41.75-15.67,42.33-41.97.52-23.05-18.99-41.94-42.04-41.84-23.12.1-41.91,18.95-41.91,42.07,1.17,25.81,15.96,41.32,41.62,41.71v.03ZM435.27,291.15c2.63,0,4.71,2.11,4.71,4.71s-2.08,4.75-4.71,4.75-4.75-2.11-4.75-4.75,2.11-4.75,4.75-4.75v.03ZM417.13,290.62c2.76,0,5.01,2.21,5.01,4.97s-2.21,4.97-4.97,5.01c-2.76,0-5.01-2.21-5.01-4.97s2.21-5.01,5.01-5.01h-.03ZM411.9,313.45c-.36-1.07-.13-2.02.72-2.8.42-.39.81-.75,1.24-1.14,2.21-2.15,4.16-4.52,5.49-7.38,1.98-4.29,7.84-5.2,11.18-1.89,1.82,1.82,3.22,3.93,4.23,6.31.07.16.16.33.23.49h.2c.55-1.43,1.14-2.86,1.63-4.32.62-1.89,1.79-3.09,3.74-3.35,1.95-.29,3.41.52,4.45,2.18,2.47,3.93,4.16,8.19,5.17,12.74.85,3.77,1.17,7.64,1.07,11.51,0,.88-.29,1.14-1.17,1.14h-1.53c0,.29,0,.49.07.68.2,1.95.42,3.87.62,5.79.1.88-.23,1.24-1.11,1.27h-2.28c-.55,0-.88-.29-1.01-.85-.1-.36-.16-.75-.26-1.11-.23-1.04-.46-2.08-.75-3.28-.46,1.4-.85,2.63-1.27,3.87-.23.78-.46.91-1.27.91h-2.15c-1.24,0-1.5-.36-1.2-1.56.46-1.85.88-3.71,1.33-5.59-.91-.39-1.04-.55-.85-1.53.65-3.74.85-7.51.59-11.31-.07-1.04-.23-2.08-.36-3.25-.88.88-1.66,1.63-2.41,2.37-.07.07-.1.23-.1.36-.13,2.63-.29,5.23-.33,7.87-.07,3.84.03,7.71.94,11.48.2.72-.16,1.17-.91,1.2h-2.54c-1.37,0-1.46-.1-1.66-1.4-.36-2.31-.75-4.62-1.11-7.02-.1.16-.16.23-.16.29-.59,2.5-1.17,4.97-1.76,7.48-.2.94-.49,1.2-1.43,1.07-.81-.13-1.63-.23-2.44-.39-.81-.13-1.11-.52-.91-1.37.52-2.18,1.04-4.36,1.5-6.53.78-3.58,1.56-7.12,1.14-10.83-.26-2.05-.59-4.06-1.5-5.95-.42-.81-.98-1.56-1.53-2.44-2.18,3.02-4.55,5.59-7.61,7.35.07.55.1,1.04.1,1.53v17.13c0,.68-.33,1.07-.85,1.07-.55,0-.88-.39-.88-1.11v-17c0-.2.07-.42,0-.55-.13-.23-.36-.39-.55-.59-.16.2-.42.36-.46.59-.1.33,0,.68-.03,1.01,0,.49-.33.78-.81.81-.49,0-.85-.23-.91-.72-.13-.88-.13-1.76.39-2.57.13-.16.16-.49.1-.68h-.07Z"/>
  <path class="cls-1" d="M396.29,0c-23.38.16-41.81,18.63-41.88,41.97-.1,22.86,19.15,42.01,42.17,41.97,22.92,0,41.94-19.21,41.84-42.23C438.33,18.44,419.57-.16,396.29,0ZM384.13,41.06v.2c0,.16.03.29.07.46-.03-.2-.1-.42-.1-.65v-19.02c0-1.53.88-2.41,2.44-2.41h7.41v-1.63c0-1.72,1.04-2.73,2.73-2.73h7.12c1.69,0,2.7,1.04,2.7,2.7v1.66h7.38c1.56,0,2.41.85,2.41,2.41v19.02c0,1.53-.85,2.37-2.37,2.37h-27.44c-1.46,0-2.28-.78-2.34-2.18v-.2h0ZM419.38,51.56c-1.17.94-2.41,1.79-3.71,2.57-3.93,2.31-7.9,4.58-11.9,6.73-3.25,1.76-6.73,2.08-10.37,1.72-3.38-.33-6.83-.65-10.24-.78-3.19-.13-6.37.49-9.43,1.43-.16.07-.36.1-.55.16-1.59-4.16-3.22-8.29-4.84-12.48.75-.26,1.46-.52,2.15-.78,2.76-1.07,5.53-2.05,8.23-3.25,2.8-1.27,5.43-.68,8.1.33,2.54.94,5.07,1.85,7.67,2.6,1.59.42,3.35.46,5.01.65.33.07.72.03,1.04.07.75.07,1.46.23,1.79,1.01.36.81.16,1.56-.33,2.28-.55.78-1.37,1.07-2.24,1.17-3.32.46-6.57.1-9.72-1.11-.68-.26-1.17-.16-1.4.33-.23.52,0,.98.68,1.27,2.21.91,4.52,1.3,6.89,1.37,1.4.03,2.8-.1,4.19-.26,1.04-.13,2.02-.55,2.73-1.37.33-.36.68-.81.75-1.27.13-.75.59-.94,1.17-1.2,3.51-1.59,6.99-3.25,10.47-4.91.36-.16.72-.39,1.04-.55,1.4-.68,2.83-.42,3.58.65.75,1.07.49,2.73-.72,3.67l-.03-.03Z"/>
  <path class="cls-1" d="M400.23,39.8c4.55,0,8.26-3.71,8.26-8.29s-3.71-8.23-8.26-8.23-8.23,3.71-8.23,8.26,3.71,8.26,8.23,8.26ZM395.19,30.79c0-.85.07-.91.94-.91h2.47v-2.67c0-.55.23-.78.78-.78h1.79c.55,0,.78.23.78.78v2.67h2.67c.52,0,.75.2.75.72v1.85c.03.59-.23.78-.78.78-.85-.03-1.69,0-2.6,0v2.44c0,.88-.07.94-.98.94h-1.69c-.49.03-.72-.2-.72-.68v-2.7h-2.44c-.88,0-.98-.07-.98-.94v-1.5Z"/>
  <path class="cls-1" d="M405.04,17.75c-.03-.59-.46-.98-1.07-.98h-7.48c-.46,0-.91.23-.98.72-.07.72,0,1.43,0,2.15h9.53v-1.89Z"/>
  <path class="cls-1" d="M359.36,163.05c-.23,23.15,18.43,41.88,41.84,41.97,23.34.1,42.07-18.4,42.14-41.65.07-23.05-18.79-42.1-41.81-42.27-22.95-.13-41.94,18.76-42.17,41.94ZM421.88,182h-34.07c-4.65,0-7.97-4.32-6.6-8.62.91-2.96,3.45-4.81,6.53-4.81h33.84c.88,0,1.4.46,1.43,1.17,0,.65-.42,1.17-1.07,1.24-.23.03-.46.03-.68.03h-33.19c-1.27,0-2.41.29-3.35,1.14-1.27,1.14-1.72,2.89-1.17,4.49.55,1.63,2.08,2.8,3.77,2.89h34.56c.68.07,1.14.55,1.17,1.2,0,.65-.46,1.17-1.14,1.24l-.03.03ZM387.12,163.11v-8.75c.94.39,1.82.75,2.7,1.11,3.06,1.3,6.11,2.57,9.17,3.9,1.4.59,2.73.49,4.1-.1,3.67-1.56,7.38-3.12,11.05-4.68.16-.07.36-.13.55-.23,0,.23.03.39.03.52v8.16c0,2.28-1.4,3.67-3.64,3.67h-20.35c-2.21,0-3.64-1.4-3.64-3.64l.03.03ZM420.19,178.39h-32.45c-1.92,0-3.28-1.27-3.32-3.02,0-1.66,1.27-3.02,2.99-3.15h33.06c-.85,2.08-1.04,4.06-.29,6.18h0ZM422.53,166.79h-5.23c-1.11,0-1.59-.85-1.07-1.82.78-1.4,1.59-2.76,2.37-4.13.13-.26.23-.59.23-.88.03-2.28.03-4.55,0-6.83,0-.36.07-.55.46-.68.52-.2,1.07-.46,1.66-.68v8.1c0,.36.1.72.29,1.04.75,1.37,1.56,2.7,2.34,4.06.55,1.01.1,1.82-1.07,1.85l.03-.03ZM380.78,148.26c3.02-1.3,6.08-2.57,9.1-3.87,3.19-1.37,6.37-2.7,9.59-4.03.46-.2.94-.26,1.4-.42.49.13.91.16,1.3.33,6.21,2.63,12.42,5.23,18.63,7.84.1.07.2.1.33.16.46.2.72.55.72,1.11,0,.49-.29.81-.75,1.01-1.3.55-2.6,1.11-3.9,1.66-4.81,2.02-9.59,4-14.37,6.08-1.27.52-2.44.59-3.74.03-6.08-2.6-12.19-5.17-18.3-7.74-.49-.2-.81-.55-.81-1.07s.29-.88.78-1.11l.03.03Z"/>
  <path class="cls-1" d="M216.79,179.27c.91.42,1.85.75,2.89,1.14.13-.72.36-1.46.39-2.21.23-3.51-2.37-4.45-4.39-4-1.33.29-1.82,1.33-1.33,2.6.49,1.14,1.33,1.98,2.44,2.47Z"/>
  <path class="cls-1" d="M174.2,189.42c-.26,23.15,18.24,42.07,41.49,42.4,23.28.33,42.07-18.04,42.36-41.42.29-23.31-17.98-42.04-41.39-42.4-23.15-.36-42.17,18.24-42.46,41.42ZM232.24,192.08c.29.42.52.94.59,1.43.1.78.03,1.56.03,2.37-.29,2.24.07,4.36,1.14,6.4,1.33,2.44,1.01,4.94,0,7.41-1.66,3.9-4.81,5.92-8.78,6.86-4.78,1.14-9.33.39-13.62-1.98-2.44-1.37-4.19-3.35-4.71-6.21-.42-2.11.1-4.1.85-6.05.59-1.53,1.11-3.09,1.63-4.65.39-1.17.62-2.44.33-3.67-.1-.52-.39-1.04-.72-1.46-.23-.36-.42-.68-.23-1.07.2-.42.59-.49,1.01-.49,3.19.1,6.27.65,9.33,1.43,1.66.42,3.28.98,4.94,1.27,2.5.42,4.94.07,6.99-1.69.42-.36.94-.36,1.27.13l-.03-.03ZM211.72,165.62c1.72-.26,3.45-.46,5.2-.55.78-.07,1.59.13,2.41.29,1.56.36,2.5,1.56,3.35,2.8,2.08,3.02,2.54,6.4,1.92,9.95-.16.94-.36,1.82-.55,2.73-.1.29,0,.46.26.59,3.06,1.53,4.58,5.46,3.45,8.97-.52,1.59-.75,1.82-2.44,1.69-.94-.07-1.89-.2-2.8-.49-2.86-.85-5.72-1.63-8.68-2.02-.42-.03-.55-.23-.59-.62-.16-1.4,0-2.44.72-4.32-1.95-.46-3.74-1.14-5.43-2.11-1.66-.94-3.28-1.98-4.75-2.86.72-4.42,1.43-8.71,2.11-13,1.92-.36,3.9-.75,5.88-1.07l-.07.03ZM190.88,176.12c.55-3.51,1.14-6.99,1.69-10.44.13-.88.46-1.07,1.3-.94,3.09.49,6.14,1.01,9.23,1.5.72.1.98.39.91,1.11-.26,1.72-.59,3.58-.88,5.4-.26,1.69-.55,3.38-.81,5.07-.16.98-.42,1.17-1.4,1.04-3.06-.49-6.11-.98-9.17-1.46-.78-.13-1.01-.46-.88-1.24v-.03Z"/>
  <path class="cls-1" d="M224.73,201.93c.46,0,.85-.36.88-.78.07-.46-.26-.88-.72-.94h-7.74c-.39,0-.75.29-.85.65-.13.55.26,1.11.85,1.11h1.98c.46,0,.85.1,1.2.39.23.16.39.36.52.59h-3.67c-.62,0-1.04.55-.88,1.11.13.39.46.65.88.65h3.61v.03s0,.03-.03.07c-.2.36-.49.59-.85.75-.39.16-.78.16-1.17.16h-1.69c-.52,0-.91.55-.78,1.07.07.23.2.42.36.55.62.62,1.24,1.27,1.89,1.89.68.68,1.37,1.37,2.08,2.05.16.2.36.29.62.33.36,0,.68-.2.81-.52.16-.36.1-.75-.16-1.01-.68-.68-1.37-1.37-2.08-2.05-.16-.16-.33-.36-.52-.52h.03l.07-.03c1.56-.1,2.89-1.14,3.32-2.6.03-.13.1-.16.2-.16h1.85c.65,0,1.07-.75.75-1.33-.2-.33-.46-.46-.81-.46h-1.79s-.13,0-.13-.07c-.13-.29-.23-.59-.36-.94h2.37l-.03.03Z"/>
  <path class="cls-1" d="M565.45,153.75c.13,23.18,18.92,41.81,42.14,41.81s41.84-18.56,41.75-41.94c-.13-23.51-18.47-41.88-41.88-41.91-22.99,0-42.14,19.12-42.01,42.04ZM600.69,178.17c-1.3,0-2.54-.1-3.22-1.53h5.4c-.46.94-1.11,1.5-2.18,1.53ZM603.75,175.11h-7.12v-1.2h7.12v1.2ZM596.6,172.44v-1.17h7.12v1.17h-7.12ZM629.11,134.47c1.43,2.47,2.8,4.84,4.26,7.38h-1.82c-.75,0-.94.23-.94.98v9.07h-2.57c-.49,0-.39-.36-.39-.62v-8.06c0-1.24-.1-1.33-1.33-1.33h-1.43c1.43-2.5,2.8-4.88,4.26-7.38l-.03-.03ZM621.6,150.86c1.24,2.11,1.53,4.39.68,6.73-.2.46-.1.85.13,1.27.68,1.11,1.33,2.24,1.98,3.38.49.85.39,1.07-.46,1.53q-1.33.72-1.11,2.21c0,.07.03.13,0,.2-.2.75-.42,1.5-.59,2.24-.1.39-.1.85-.1,1.27,0,.2.16.36.23.55.55,1.3.33,1.98-1.07,2.31-1.59.36-3.28.46-4.91.59-1.04.1-1.14.13-1.14,1.2v3.48h-11.44c.29-.39.62-.78.88-1.2.2-.33.36-.72.36-1.11.07-1.4.07-2.76,0-4.16-.03-1.17.33-2.18,1.01-3.09.91-1.27,1.92-2.5,2.93-3.67,4.13-4.94,3.54-13.3-2.37-17.36-.1-.03-.16-.13-.23-.2,0-.07,0-.1.03-.16h2.73c.81,0,1.04-.23,1.04-1.07v-1.66c1.14.2,2.24.33,3.32.62,3.41,1.04,6.24,2.96,8.06,6.11h.03ZM607.36,128.03c1.43,2.47,2.8,4.84,4.26,7.38h-1.79c-.81,0-1.01.2-1.01,1.01v9.01h-2.93c0-.26-.03-.49-.03-.75v-8.16c0-.94-.16-1.11-1.07-1.11h-1.69c1.43-2.5,2.8-4.88,4.26-7.38ZM593.7,148.94c3.41-2.73,7.25-3.19,11.15-1.14,3.87,2.02,5.56,5.4,5.46,9.75-.1,2.89-1.46,5.2-3.28,7.32-1.27,1.43-2.5,2.83-3.09,4.68-.07.13-.39.26-.59.26-1.07.03-2.11,0-3.15,0h-3.22c-.2,0-.52-.16-.55-.29-.55-1.66-1.63-2.99-2.73-4.26-1.4-1.59-2.73-3.22-3.25-5.33-1.04-4.06-.07-8.26,3.32-10.96l-.07-.03ZM585.64,134.47c1.43,2.47,2.8,4.84,4.26,7.38h-1.76c-.81,0-1.04.23-1.04,1.04v8.94h-2.93v-8.84c0-.98-.16-1.14-1.14-1.14h-1.37s-.07,0-.23-.07c1.4-2.41,2.76-4.78,4.19-7.28v-.03Z"/>
  <path class="cls-1" d="M600.11,160.28c1.92,0,3.38-1.43,3.41-3.32.07-1.92-1.43-3.45-3.35-3.48-1.85,0-3.41,1.46-3.45,3.32-.03,1.92,1.46,3.45,3.35,3.45l.03.03ZM600.21,154.89c1.11.03,1.98.94,1.98,2.05s-.94,1.98-2.05,1.98-1.98-.94-1.98-2.05.94-2.02,2.05-1.98Z"/>
  <path class="cls-1" d="M593.83,159.05s.36.16.42.33,0,.39-.07.52c-.13.2-.33.36-.52.52-.55.59-.55,1.27,0,1.85.16.2.39.39.55.59,1.27,1.27,1.53,1.27,2.86.1.03-.03.07-.1.1-.1.16-.03.39-.1.52-.03.13.07.29.26.29.42.07.26,0,.55.03.81.03.78.46,1.2,1.24,1.24h1.2c1.43,0,1.72-.33,1.76-1.72,0-.26.16-.59.36-.75.13-.07.52.1.68.26,1.04,1.01,1.53,1.01,2.54-.03.13-.1.23-.2.33-.33,1.17-1.14,1.17-1.5,0-2.7-.03-.07-.1-.1-.13-.13-.26-.36-.07-.78.36-.85h.75c.85-.03,1.3-.49,1.33-1.37v-1.07c0-1.46-.33-1.76-1.76-1.82-.26,0-.59-.16-.72-.39-.07-.13.13-.49.26-.72.26-.39.55-.75.81-1.07-.13-.36-.13-.62-.26-.78-.52-.55-1.04-1.14-1.63-1.63-.42-.36-.94-.29-1.43.07-.23.16-.39.42-.65.59-.16.1-.46.2-.55.13-.16-.1-.29-.36-.36-.55-.07-.2,0-.39,0-.59-.03-.88-.46-1.33-1.33-1.33h-1.07c-1.46,0-1.76.29-1.79,1.76,0,.23-.16.65-.33.68-.23.07-.52-.13-.78-.26-.36-.2-.65-.59-1.04-.68-.91-.23-2.86,1.72-2.6,2.67.13.42.55.78.81,1.17.1.16.16.42.13.55-.07.16-.33.29-.49.36-.26.07-.52,0-.81,0-.72.03-1.14.49-1.17,1.2v.68c0,1.37.69,2.15,2.08,2.34l.07.07ZM593.22,156.19c1.01,0,1.92,0,2.41-1.2.46-1.2-.1-1.82-.94-2.54.39-.33.72-.59,1.11-.94.65.65,1.24,1.37,2.47.85,1.2-.52,1.24-1.4,1.2-2.41h1.37c0,1.01,0,1.89,1.2,2.41,1.24.52,1.82-.13,2.5-.85.36.36.68.62,1.04.98-.78.72-1.4,1.37-.88,2.57.49,1.2,1.37,1.17,2.41,1.17v1.37c-.94.1-1.92-.1-2.41,1.17-.46,1.2,0,1.89.85,2.5-.36.36-.68.65-1.04,1.01-.65-.65-1.24-1.37-2.47-.81-1.24.52-1.27,1.37-1.24,2.41h-1.4c0-.98.07-1.89-1.17-2.37-1.24-.55-1.82.1-2.57.88-.33-.36-.59-.68-.94-1.07.68-.65,1.33-1.27.81-2.47-.49-1.17-1.33-1.2-2.37-1.17v-1.4l.06-.07Z"/>
  <path class="cls-1" d="M108.33,282.66c1.53-.98,3.12-1.66,4.91-2.02.72-.13,1.17-.78,1.17-1.5,0-.91-.81-1.59-1.72-1.46-2.18.36-4.16,1.17-5.98,2.41-.72.49-.85,1.37-.42,2.08.46.68,1.37.91,2.05.46v.03Z"/>
  <path class="cls-1" d="M112.63,287.37c-2.15.39-4.06,1.33-5.88,2.5-.55.36-.72,1.07-.49,1.69.2.62.78,1.01,1.69,1.01.2-.1.65-.26,1.04-.49,1.33-.75,2.7-1.4,4.23-1.72.88-.2,1.4-.91,1.24-1.76-.13-.81-.91-1.37-1.79-1.2l-.03-.03Z"/>
  <path class="cls-1" d="M59.18,287.63c-.26,23.18,18.34,42.07,41.62,42.23,23.34.16,42.1-18.24,42.33-41.52.2-23.21-18.47-42.17-41.62-42.3-23.34-.13-42.07,18.27-42.33,41.58ZM122.02,297.94v-22.24h3.32c.55,0,.85.39.91.91.03.16,0,.36,0,.52v25.33c0,1.14-.23,1.4-1.33,1.46-3.06.23-6.11.33-9.14.68-2.89.33-5.75.88-8.65,1.33-.16,0-.36.07-.52.1-.03-.07-.07-.13-.1-.16,1.07-.68,2.11-1.43,3.25-2.05,3.32-1.92,6.83-3.19,10.57-3.9,1.27-.23,1.66-.72,1.66-1.98h.03ZM102.55,275.28c2.11-2.31,4.68-3.93,7.51-5.2,2.37-1.07,4.84-1.85,7.41-2.34.98-.16,1.46.2,1.46,1.17v27.77c0,.36-.1.52-.46.59-4.75,1.07-9.14,2.96-13.1,5.79-1.17.85-2.24,1.76-3.45,2.7v-29.03c0-.59.2-1.04.59-1.43h.03ZM81.9,269.04c0-1.14.46-1.5,1.59-1.3,4.39.88,8.49,2.44,12.13,5.14,1.11.81,2.05,1.85,3.06,2.8.16.13.23.42.23.62v29.36c-1.63-1.17-3.15-2.41-4.78-3.51-3.58-2.37-7.48-3.9-11.64-4.88-.46-.1-.59-.26-.59-.75v-27.51.03ZM74.62,277.03c0-.85.39-1.2,1.2-1.2h3.02v22.04c0,1.37.39,1.82,1.72,2.08,4.88.98,9.4,2.83,13.43,5.75.1.07.2.16.26.23v.13c-.88-.16-1.72-.33-2.57-.49-3.64-.72-7.32-1.07-10.99-1.27-1.66-.1-3.32-.2-4.97-.33-.78-.07-1.11-.39-1.11-1.2v-25.75Z"/>
  <path class="cls-1" d="M87.53,290.3c1.72.39,3.32,1.14,4.84,2.02.85.49,1.76.26,2.18-.49.46-.78.2-1.66-.68-2.11-1.01-.55-1.98-1.11-3.02-1.53-.88-.39-1.82-.59-2.41-.78-1.11-.07-1.79.46-1.92,1.17-.16.78.26,1.56,1.04,1.76l-.03-.03Z"/>
  <path class="cls-1" d="M87.98,280.74c1.56.33,3.02.94,4.36,1.79.85.55,1.76.42,2.28-.36.49-.75.26-1.63-.59-2.15-1.33-.88-2.76-1.53-4.29-1.98-.55-.16-1.14-.26-1.56-.39-.81,0-1.43.42-1.63,1.04s0,1.3.55,1.66c.26.2.59.29.91.36l-.03.03Z"/>
  <path class="cls-1" d="M448.38,91.13c.13,23.44,18.56,41.55,42.2,41.42,23.15-.13,42.01-19.18,41.71-42.17-.29-23.18-19.25-41.71-42.49-41.52-23.34.16-41.55,18.76-41.42,42.3v-.03ZM482.45,72.96c1.79-.94,3.74-1.43,5.75-1.5.33,0,.65.1.94.26.68.42,1.43.78,2.02,1.33.78.68,1.5,1.43,2.11,2.28.55.78-.29,2.34-1.27,2.41-.23,0-.52-.23-.68-.42-.23-.26-.36-.62-.55-.88-.39-.52-.91-.52-1.37-.1-.88.85-.91,2.47-.13,3.38.49.55.98,1.11,1.46,1.69.16.2.29.42.39.65.39.88.23,1.56-.68,1.76-1.3.26-1.5,1.14-1.56,2.21-.03.55-.03,1.11-.13,1.63-.26,1.14-.94,1.5-2.05,1.17-.26-.1-.55-.2-.85-.26-.72-.16-1.27-.03-1.69.59-.26.46-.72.68-1.27.65-.65,0-.88-.36-.55-.91.39-.62.81-1.17,1.3-1.72.49-.52,1.01-1.01,1.53-1.5.81-.78.91-1.24.36-2.21-.29-.55-.49-1.11-.36-1.79.13-.72-.13-1.33-.78-1.79-.33-.26-.59-.68-.68-1.07-.16-.62-.49-.94-1.11-.98-.39,0-.81,0-1.17.1-1.46.46-2.54-.16-3.64-1.14,1.27-1.66,2.8-2.93,4.62-3.87l.03.03ZM494.41,74.42s-.03-.1-.07-.16c.78-.1,1.56-.16,2.31-.23.13,0,.33.13.46.23,3.06,2.37,4.81,5.49,5.33,9.3.2,1.43.13,2.83-.2,4.29-1.4-.72-2.8-1.4-4.39-.85-1.66.55-2.21,2.02-2.7,3.54-1.43-.49-2.54.1-3.61.91-1.17.94-1.37,1.85-.72,3.41-1.56.88-1.98,2.31-1.4,4.23-1.69-.23-3.25-.42-4.88-.65.49-.59.94-.98,1.2-1.46.26-.49.49-1.07.52-1.66.07-1.14-.85-2.02-2.15-2.15-.65-.07-1.3,0-1.82,0-.42-.68-.78-1.24-1.14-1.82-.23-.36-.42-.68-.23-.98.59.26,1.11.68,1.69.75.55.07,1.17-.16,1.76-.29.13-.03.33-.13.39-.26.49-.78,1.11-.65,1.89-.42,1.89.59,3.48-.72,3.67-2.86v-.52c0-.85.07-1.53,1.11-1.95,1.4-.52,1.79-2.11,1.01-3.51-.46-.81-1.14-1.53-1.72-2.31-.2-.23-.39-.49-.59-.72,0-.03.1-.07.13-.1.13.13.29.26.42.39.55.49,1.2.62,1.95.39,1.95-.65,2.8-2.83,1.85-4.62l-.1.07ZM492.07,94.12c-.36-.59-.29-.94.23-1.4.29-.26.59-.46.91-.65.62-.39,1.2-.39,1.79.07.59.46.81.39,1.14-.29.23-.52.42-1.07.59-1.59.75-1.98,1.85-2.47,3.77-1.66,1.5.62,1.53.62.88,2.08-1.92,4.23-5.14,6.86-9.59,7.97-1.01.23-1.2.03-1.37-1.11.23-.39.46-.78.75-1.14.13-.16.29-.23.49-.33.91-.68,1.01-.94.42-1.95h0ZM480.08,92.37c.29.39.49.88.59,1.37.1.59.49.81,1.01.85.52.07,1.07,0,1.59,0,.59,0,1.27-.1,1.53.55.26.62-.16,1.07-.55,1.5-1.04,1.14-1.2,1.17-2.47.42-2.99-1.79-5.04-4.39-6.14-7.71-.07-.2-.1-.39-.16-.59.16-.07.26-.13.36-.13.88.03,1.14-.52,1.3-1.24.13-.49.2-1.01.33-1.5.13-.52.39-.98.94-1.11.59-.1,1.04.16,1.4.59.55.68.59,1.5.39,2.31-.16.72-.36,1.4-.59,2.08-.33.94-.13,1.76.49,2.5v.1ZM476.99,78c1.56,1.37,3.25,1.98,5.3,1.17.16.88.59,1.46,1.24,1.89.13.1.23.39.2.55-.2.88.07,1.66.49,2.44.1.13.1.46,0,.55-.81.81-1.69,1.56-2.5,2.34,0-.07-.03-.26-.07-.46-.1-.88-.46-1.66-1.14-2.24-1.63-1.43-3.8-.81-4.42,1.24-.13.46-.23.91-.29,1.4-.07.39-.29.52-.72.46-.49-3.32.16-6.37,1.89-9.3l.03-.03ZM472.7,90.64c.39-.16.75-.07.91.36.26.52.46,1.04.72,1.66h-1.56c-.13-.33-.29-.72-.42-1.11-.13-.39-.07-.72.36-.88v-.03ZM473.61,106.38c-1.07-.75-2.15-1.53-2.86-2.67-.52-.85-1.04-1.72-1.4-2.67-1.66-4.32-3.25-8.65-4.88-13-.2-.55-.36-1.14-.49-1.69-.23-1.04.68-1.85,1.72-1.56.75.23,1.3.78,1.69,1.4.49.75.88,1.53,1.27,2.34.78,1.56,1.53,3.09,2.28,4.65.1.23.13.59.03.85-.23.72-.29,1.43.03,2.08.52,1.04,1.11,2.15,1.82,3.06,1.01,1.2,2.18,2.31,3.32,3.45.33.33.72.42,1.11.1.33-.29.26-.72-.13-1.14-1.17-1.24-2.41-2.44-3.51-3.71-.52-.59-.91-1.33-1.2-2.05-.39-.94.2-1.79,1.2-1.72.52,0,1.14.2,1.5.52,2.54,2.15,5.01,4.32,7.48,6.57,1.11,1.01,1.69,2.31,1.92,3.74.23,1.76.42,3.54.65,5.4h-7.54c-.2,0-.49-.1-.59-.23-.78-1.56-2.05-2.67-3.45-3.64l.03-.07ZM475.82,115.84c0-1.04-.07-2.05,0-3.06.07-.65.59-1.04,1.27-1.07h9.07c.68,0,1.24.52,1.27,1.17.07.94,0,1.89,0,2.93h-11.61v.03ZM485.57,102.48s-.33-.13-.42-.29c-.29-.42-.55-.88-.88-1.46,2.99.81,5.92.81,8.94,0-.33.55-.59,1.01-.88,1.43-.1.13-.29.26-.46.33-2.11.42-4.23.42-6.31,0h0ZM490.09,115.84c0-1.04-.07-2.05,0-3.06.07-.59.62-1.04,1.27-1.04h9.07c.68,0,1.2.49,1.27,1.17.07.94,0,1.92,0,2.93h-11.61,0ZM513.47,86.35c-.36,1.3-.78,2.6-1.27,3.87-1.3,3.51-2.63,6.99-3.9,10.47-.88,2.41-2.31,4.32-4.49,5.75-1.43.94-2.63,2.05-3.41,3.61-.07.13-.23.23-.36.23h-7.77c.23-1.98.42-3.87.75-5.72.29-1.79,1.37-3.12,2.73-4.26,2.02-1.69,3.97-3.48,5.95-5.17.42-.39.88-.75,1.4-.94.39-.13.94-.1,1.33.03.72.26.98.81.65,1.46-.55,1.07-1.17,2.08-1.92,2.99-.85,1.01-1.82,1.89-2.76,2.83-.46.46-.52.81-.23,1.17.33.36.75.33,1.2-.13,1.72-1.63,3.45-3.25,4.58-5.33.59-1.07.94-2.15.39-3.38-.07-.13,0-.39.1-.52.94-1.95,1.89-3.93,2.89-5.85.39-.72.91-1.4,1.43-2.02.23-.29.65-.49.98-.59,1.01-.33,1.98.52,1.69,1.53l.03-.03ZM497.76,69.64c.26.46.55.81,1.01,1.11,1.98,1.37,3.61,3.06,4.88,5.14.07.1.13.2.36.26-.1-.42-.1-.85-.23-1.27-1.3-4.36,2.24-8.45,6.73-7.84.13,0,.26.07.46.1-1.04,1.37-1.07,2.99-1.43,4.49-.42,1.76-1.11,3.35-2.76,4.32-.2.1-.39.2-.65.33-.1-1.69.23-3.22.65-4.75-.81,1.11-1.2,2.34-1.37,3.64-.26,2.05.16,4.03.55,6.01.75,3.67.49,7.22-.91,10.7-.1.26-.2.49-.33.78-.33-.03-.55-.07-.78-.07h-.68c4.65-9.01-.33-19.44-8.68-22.4.46.29.88.62,1.33.94.46.36.85.72,1.37,1.17-1.4.55-2.73.62-4,.1-.94-.42-1.82-.98-2.73-1.5-1.07-.65-2.05-1.46-3.41-1.63.1-.16.16-.29.23-.42,2.7-3.71,8.29-3.28,10.47.78h-.06Z"/>
  <path class="cls-1" d="M92.79,392.16c4.13,0,7.51-3.38,7.48-7.51,0-4.13-3.35-7.45-7.48-7.45s-7.48,3.35-7.48,7.48,3.38,7.48,7.48,7.48ZM88.21,384c0-.75.07-.81.85-.81h2.24v-2.41c0-.52.2-.72.72-.72h1.63c.49,0,.72.2.72.72v2.41h2.41c.49,0,.68.16.65.65v1.69c0,.52-.23.72-.72.68h-2.37v2.24c0,.78-.07.85-.88.85h-1.5c-.46,0-.65-.2-.65-.62v-2.44h-2.21c-.81,0-.88-.07-.88-.85v-1.4Z"/>
  <path class="cls-1" d="M97.15,372.2c0-.52-.39-.88-.94-.91h-6.76c-.42,0-.85.2-.88.65-.07.62,0,1.3,0,1.92h8.65v-1.66h-.07Z"/>
  <path class="cls-1" d="M79.5,395.31c-.81-.26-1.27-.94-1.27-1.95,0,1.01.46,1.69,1.27,1.95Z"/>
  <path class="cls-1" d="M125.21,393.62c.13-16.81-16.52-35.08-32.25-35.44-22.17-.52-39.79,15.12-40.02,35.47-.2,19.21,16.45,35.76,36.12,35.93,19.41.16,35.99-16.32,36.12-35.99l.03.03ZM78.2,387.48v-11.41c0-1.4.78-2.18,2.18-2.18h6.7v-1.46c0-1.56.94-2.47,2.5-2.47h6.44c1.53,0,2.44.94,2.44,2.47v1.46h6.7c1.4,0,2.18.78,2.18,2.18v17.23c0,1.4-.78,2.15-2.15,2.15h-24.87c-1.4,0-2.15-.78-2.15-2.15v-1.66,1.69-5.85h.03ZM110.12,402.82c-1.07.85-2.18,1.63-3.35,2.31-3.58,2.08-7.15,4.13-10.79,6.11-2.93,1.59-6.11,1.89-9.4,1.56-3.09-.33-6.18-.59-9.27-.72-2.93-.1-5.79.42-8.58,1.3-.16.07-.33.1-.52.13-1.46-3.77-2.93-7.51-4.39-11.31.68-.23,1.33-.46,1.98-.72,2.47-.98,5.01-1.89,7.45-2.96,2.54-1.14,4.91-.59,7.35.29,2.31.85,4.58,1.69,6.96,2.34,1.46.39,3.02.39,4.55.59.33.03.65,0,.98.03.68.03,1.33.2,1.59.91.29.72.16,1.43-.33,2.05-.49.68-1.24.98-2.05,1.07-3.02.42-5.95.1-8.81-.98-.62-.23-1.04-.16-1.24.29s0,.88.59,1.14c2.02.85,4.13,1.17,6.24,1.27,1.27.03,2.54-.07,3.8-.23.94-.13,1.82-.52,2.47-1.24.29-.33.59-.72.65-1.14.13-.68.55-.85,1.07-1.11,3.15-1.46,6.34-2.96,9.49-4.45.33-.16.62-.36.94-.49,1.27-.62,2.54-.39,3.25.59.65.94.42,2.47-.65,3.32v.03Z"/>
  <path class="cls-1" d="M91.56,141.92c.49,17.62,14.66,31.41,32.41,31.41,18.11.03,32.51-14.4,32.38-32.45-.13-17.95-14.83-32.25-32.87-32.02-17.91.23-32.41,15.25-31.93,33.06ZM109.86,139.05h9.69c-.59.62-1.14,1.24-1.72,1.82-.1.07-.16.13-.26.16-1.5.78-2.63,1.95-3.45,3.41-.07.13-.23.26-.33.26h-2.86v-3.41h-1.11c-.68-.03-1.2-.55-1.17-1.17s.52-1.11,1.2-1.11v.03ZM115.49,158.5h-2.24v-4.58h2.24v4.58ZM124.62,158.5h-2.24v-9.14h2.24v9.14ZM133.76,158.5h-2.24v-4.55h2.24v4.55ZM142.86,148.68c-.2.42-.55.65-1.04.65h-1.14v7.84c0,.94-.42,1.4-1.37,1.4h-3.25v-5.59c0-.91-.46-1.33-1.33-1.33h-4.26c-.85,0-1.3.42-1.3,1.3v5.59h-2.28v-10.01c0-1.07-.42-1.46-1.46-1.46h-4.03c-.91,0-1.37.46-1.37,1.37v10.11h-2.28v-5.53c0-.94-.42-1.37-1.37-1.37h-4.19c-.85,0-1.3.46-1.3,1.33v5.56c-.13,0-.23,0-.36.03h-3.02c-.81,0-1.24-.46-1.24-1.27v-7.97h-1.04c-.75,0-1.27-.46-1.27-1.14s.52-1.17,1.3-1.17h9.88c.36,0,.46-.1.55-.42.52-1.72,1.66-2.96,3.32-3.71.2-.1.39-.26.49-.46,1.79-3.02,6.14-3.02,7.93,0,.1.16.23.29.39.39,1.82.78,2.96,2.11,3.48,4,0,.07.07.1.1.2h10.27c.98,0,1.59.85,1.17,1.66ZM137.4,139.09c.55.13.98.62.94,1.17-.03.55-.49,1.04-1.11,1.07h-1.17v3.41h-2.89c-.1,0-.23-.13-.29-.23-.81-1.5-1.98-2.67-3.48-3.48-.07,0-.13-.07-.2-.13-.59-.62-1.17-1.27-1.76-1.89h9.59s.26,0,.39.03l-.03.03ZM136.07,134.47c0,.72-.55,1.14-1.53,1.14h-.78v1.11h-20.52v-1.11h-1.11c-.68,0-1.2-.52-1.2-1.14s.52-1.11,1.17-1.11h22.43c.94,0,1.5.42,1.5,1.14l.03-.03ZM133.79,128.78c0,.65-.52,1.11-1.27,1.14h-1.04v1.11h-15.93v-1.11h-1.04c-.75,0-1.27-.49-1.27-1.14,0-.68.52-1.17,1.3-1.17h17.98c.78,0,1.3.49,1.3,1.17h-.03ZM124.66,120.82v1.01h2.31v-1.07c0-.72.49-1.2,1.14-1.2s1.11.49,1.14,1.2v1.07h1.07c.72,0,1.17.46,1.2,1.11,0,.68-.46,1.14-1.17,1.17h-1.11v1.17h-11.41v-1.17h-1.04c-.75,0-1.27-.49-1.27-1.14s.49-1.14,1.27-1.14h1.04v-1.11c0-.72.49-1.2,1.14-1.2s1.11.52,1.11,1.24v1.04h2.31v-1.01c0-.75.49-1.27,1.14-1.27s1.14.52,1.14,1.27v.03Z"/>
  <path class="cls-1" d="M298.17,317.12c16.61-.26,29.65-13.65,29.55-30.4-.1-16.42-13.72-29.94-30.17-29.91-16.78.03-30.66,14.31-30.17,31.02.49,16.52,14.18,29.52,30.79,29.29ZM296.48,306.04v.78h-9.17v-2.15c.03-.62.49-1.01,1.2-1.01h3.12c.81,0,1.66.03,2.47,0,2.44-.07,2.41.26,2.37,2.37ZM291.41,289.75c.13-1.5.75-2.73,1.79-3.74,1.04-1.04,2.31-1.56,3.87-1.72-1.82-.52-2.73-1.72-2.54-3.22.23-1.5,1.43-2.54,2.89-2.5,1.46,0,2.63,1.07,2.8,2.6.2,1.43-.78,2.67-2.44,3.12,3.35.68,5.72,3.06,5.53,5.46,0,0-11.9,0-11.9,0ZM307.47,306.82h-9.14c0-.78-.03-1.53,0-2.28.03-.52.46-.85,1.04-.88h7.02c.68,0,1.07.49,1.07,1.17,0,0,0,1.98,0,1.98ZM315.57,283.08c.2-.49.46-.98.81-1.37.46-.49,1.07-.29,1.14.39.1.59.1,1.24-.07,1.85-.59,2.47-1.2,4.94-1.92,7.41-.55,2.02-1.82,3.58-3.38,4.94-1.4,1.27-2.83,2.5-4.16,3.84-.59.59-.94,1.4-1.4,2.08-.1.13-.23.29-.36.29h-6.76s-.07-.03-.13-.07c-.03-.55-.13-1.14-.1-1.72.03-1.11.07-2.21.23-3.28.23-1.66,1.24-2.83,2.73-3.51.81-.39,1.66-.72,2.47-1.07,1.79-.75,3.38-1.82,4.78-3.15.13-.13.29-.29.49-.39.46-.29,1.04-.2,1.37.13.36.36.42.85.13,1.33-.55,1.01-1.37,1.72-2.28,2.37-.59.42-1.24.78-1.89,1.14-.42.23-.62.49-.46.81.23.42.55.39.91.2,1.89-.88,3.48-2.11,4.62-3.87,1.24-1.89,1.95-4.06,2.57-6.21.2-.72.36-1.46.59-2.18l.07.03ZM305.13,273.82c.33-1.14,1.4-1.92,2.54-1.89,1.17.07,2.18.94,2.37,2.05.26,1.37-.39,2.37-1.98,3.06,1.3.23,2.41.68,3.25,1.56.88.91,1.4,1.98,1.53,3.25h-10.6c.1-1.27.62-2.34,1.5-3.25.88-.88,1.95-1.37,3.25-1.59-1.72-.94-2.28-1.92-1.89-3.25l.03.07ZM293.78,266.6c1.14-.46,2.63-.07,3.32.85.1.13.2.23.33.42.55-.94,1.4-1.37,2.44-1.43,1.95-.07,3.25,1.5,2.8,3.38-.26,1.11-.81,2.11-1.56,2.96-1.04,1.2-2.18,2.34-3.28,3.48-.23.23-.49.33-.72.07-1.63-1.56-3.35-3.09-4.39-5.17-.29-.55-.49-1.17-.55-1.82-.16-1.24.49-2.28,1.66-2.73h-.03ZM286.69,277.03c-.81-.26-1.43-.72-1.76-1.4-.36-.72-.36-1.46-.07-2.18.46-1.01,1.56-1.66,2.63-1.5,1.17.16,2.05,1.04,2.21,2.15.16,1.33-.46,2.28-1.98,2.93,2.96.78,4.71,2.6,4.71,4.84h-10.5c-.16-2.08,1.82-4.16,4.75-4.84ZM277.23,282.11c.16-.68.75-.88,1.2-.39.36.39.62.88.78,1.4.36,1.01.59,2.05.88,3.09.55,1.89,1.24,3.67,2.31,5.3,1.11,1.66,2.63,2.86,4.39,3.74.1.07.2.07.29.13.36.13.65.07.81-.29.13-.33-.07-.59-.36-.72-1.24-.52-2.24-1.27-3.15-2.21-.39-.42-.75-.88-1.07-1.37s-.23-1.01.16-1.37c.36-.33.91-.36,1.37-.1.13.07.23.16.33.26,1.63,1.66,3.58,2.8,5.72,3.64.59.23,1.17.49,1.76.78,1.46.72,2.34,1.85,2.63,3.45.33,1.69.26,3.35.13,5.1h-6.86s-.29-.1-.33-.2c-.78-1.82-2.18-3.09-3.64-4.32-.85-.75-1.69-1.46-2.54-2.24-1.27-1.14-2.18-2.5-2.73-4.1-.94-2.8-1.72-5.66-2.15-8.62,0-.33,0-.68.07-1.01v.03Z"/>
  <path class="cls-1" d="M519.77,246.54c.23,16.16,13.33,29.07,29.55,29.07s29.81-13.33,29.62-30.04c-.23-16.16-13.26-29.03-29.49-29.1-16.52-.07-29.85,13.46-29.65,30.04l-.03.03Z"/>
  <path class="cls-1" d="M330.65,198.81c-15.57.2-27.86,12.58-27.7,27.99.13,15.31,12.84,27.7,28.25,27.6,15.48-.13,27.77-12.65,27.6-28.16-.13-15.54-12.55-27.64-28.16-27.44Z"/>
  <path class="cls-1" d="M351.04,90.74c-13.26.52-23.67,11.51-23.41,24.68.26,13.65,11.54,24.25,25.33,23.77,13.23-.46,23.6-11.41,23.34-24.64-.26-13.69-11.54-24.32-25.26-23.8Z"/>
  <path class="cls-1" d="M20.52,384.16c10.47.26,20.38-9.72,20.58-20.78.23-11.12-8.88-21-19.83-21.59-10.89-.55-20.91,10.05-21.26,22.56-.26,9.69,9.88,19.47,20.52,19.77v.03Z"/>
  <path class="cls-1" d="M643.38,414.37c.1-11.05-7.9-19.34-18.66-19.28-13.88.07-21.69,7.06-22.01,19.73-.29,11.44,8.71,20.87,20.09,21.04,11.7.16,20.48-8.97,20.58-21.46v-.03Z"/>
  <path class="cls-1" d="M357.83,331.26c2.6-9.72-2.67-20.12-12.09-23.96-9.33-3.77-20.78,0-25.33,8.84-4.1,7.93-3.87,15.96,1.27,23.54,4.88,2.24,9.59,5.59,14.7,6.47,11.09,1.98,18.43-3.67,21.46-14.96v.07Z"/>
  <path class="cls-1" d="M321.78,339.88s-.07-.1-.1-.16c0,0-.07,0-.1-.03l.2.2h0Z"/>
  <path class="cls-1" d="M159.77,67.37c-11.44.1-20.48,9.4-20.19,20.78.29,10.96,9.14,19.64,20.19,19.77,11.44.13,20.71-8.91,20.78-20.29.07-11.25-9.3-20.35-20.78-20.25Z"/>
  <path class="cls-1" d="M555.89,53.74c-11.25.2-20.51,9.88-20.19,21.07.33,10.86,9.43,19.77,20.29,19.83,11.38.1,20.74-9.14,20.68-20.45s-9.53-20.61-20.78-20.45Z"/>
  <path class="cls-1" d="M124.85,194.06c-11.02.26-19.54,9.04-19.6,20.22-.1,11.41,9.14,20.68,20.45,20.58,11.18-.1,20.52-9.72,20.29-20.87-.23-11.28-9.69-20.22-21.13-19.93Z"/>
  <path class="cls-1" d="M564.25,169.55c.03-11.35-9.2-20.52-20.58-20.45-11.41.1-20.48,9.36-20.29,20.78.16,10.92,9.01,19.64,20.09,19.9,11.38.26,20.74-8.84,20.78-20.19v-.03Z"/>
  <path class="cls-1" d="M621.31,325.74c11.31-.16,20.51-9.66,20.25-20.91-.26-11.28-9.85-20.19-21.23-19.8-10.89.36-19.77,9.46-19.73,20.25,0,11.25,9.46,20.58,20.68,20.45h.03Z"/>
  <path class="cls-1" d="M56.87,467.29c11.38-.16,20.35-9.53,20.09-20.97-.26-11.38-9.79-20.32-21.1-19.86-11.02.46-19.57,9.36-19.54,20.38,0,11.48,9.2,20.58,20.58,20.42l-.03.03Z"/>
  <path class="cls-1" d="M467.07,188.86c-.13,10.76,8.68,20.03,19.54,20.58,11.18.55,21.04-8.52,21.36-19.73.33-11.18-8.84-20.91-20.03-21.13-11.18-.23-20.74,9.04-20.87,20.29Z"/>
  <path class="cls-1" d="M396.52,266.05c-.07-11.35-9.4-20.48-20.78-20.32-11.28.16-20.51,9.72-20.25,20.91.26,10.79,9.36,19.6,20.29,19.67,11.54.1,20.78-8.97,20.74-20.25Z"/>
  <path class="cls-1" d="M158.05,260.16c.33,10.89,9.3,19.54,20.35,19.6,11.25.07,20.74-9.43,20.58-20.51-.16-11.31-9.66-20.42-20.97-20.12-11.51.29-20.29,9.53-19.96,21.04Z"/>
  <path class="cls-1" d="M253.18,278.63c.13-10.96-8.49-20.09-19.38-20.55-11.22-.49-20.87,8.49-21.33,19.77-.42,11.25,8.65,20.78,19.99,21,11.44.23,20.58-8.71,20.71-20.22Z"/>
  <path class="cls-1" d="M646.11,185.55c.39,10.96,9.36,19.51,20.38,19.44,11.54-.1,20.58-9.23,20.38-20.58-.2-11.31-9.69-20.38-21.04-20.06-11.38.33-20.16,9.72-19.77,21.23l.03-.03Z"/>
  <path class="cls-1" d="M713.9,296.25c-11.25.29-19.77,8.88-19.77,19.9s9.49,20.84,19.38,20.81c11.9-.07,21.62-9.59,21.46-21.07-.16-11.67-9.01-19.93-21.07-19.64h0Z"/>
  <path class="cls-1" d="M304.09,164.87c11.41.2,20.71-8.88,20.74-20.25.03-11.48-9.07-20.52-20.55-20.45-10.89.07-19.96,8.84-20.25,19.7-.36,11.25,8.81,20.81,20.06,21Z"/>
  <path class="cls-1" d="M658.47,468.99c11.54-.26,20.16-9.46,19.77-21.07-.39-10.99-9.3-19.67-20.25-19.67-11.22-.03-20.55,9.43-20.45,20.65.13,11.35,9.49,20.35,20.91,20.09h.03Z"/>
  <path class="cls-1" d="M294.07,45.94c.29,11.05,9.01,19.54,20.19,19.64,11.54.16,20.58-8.81,20.48-20.32-.1-11.41-9.4-20.58-20.61-20.32-11.41.29-20.35,9.66-20.06,21Z"/>
  <path class="cls-1" d="M259.35,113.86c-11.41-.42-20.91,8.42-21.26,19.77-.36,11.41,8.55,20.68,20.06,20.81,11.64.13,20.84-8.78,20.81-20.09-.07-10.96-8.75-20.06-19.57-20.45l-.03-.03Z"/>
  <path class="cls-1" d="M239.03,88.66c.39,11.02,9.3,19.57,20.35,19.57s20.71-9.27,20.55-20.48c-.2-11.35-9.49-20.25-20.97-20.09-11.35.16-20.35,9.66-19.93,21Z"/>
  <path class="cls-1" d="M294.92,230.84c.16-11.18-9.2-20.61-20.48-20.61s-19.9,8.52-20.29,19.57c-.39,11.54,8.32,20.81,19.77,21.07,11.35.26,20.81-8.81,20.97-20.03h.03Z"/>
  <path class="cls-1" d="M57.78,213.51c-.16,11.31,9.07,20.42,20.55,20.35,11.38-.07,20.71-9.46,20.45-20.55-.29-11.22-9.82-20.22-21.17-19.99-10.79.2-19.67,9.23-19.8,20.19h-.03Z"/>
  <path class="cls-1" d="M518.57,286.43c.23-11.41-8.71-20.48-20.25-20.58-11.54-.1-20.48,8.84-20.42,20.38.1,11.09,8.75,19.99,19.6,20.19,11.35.2,20.84-8.78,21.04-19.99h.03Z"/>
  <path class="cls-1" d="M304.93,73.84c-11.05.39-19.51,9.2-19.51,20.35s9.14,20.55,20.48,20.42c11.44-.13,20.35-9.4,20.09-20.87-.26-11.38-9.69-20.32-21.07-19.9Z"/>
  <path class="cls-1" d="M463.1,12.03c-11.05.07-19.9,9.01-19.86,20.09.03,11.05,9.07,19.93,20.16,19.8,11.28-.13,19.8-8.75,19.73-20.03-.07-11.12-8.91-19.93-20.03-19.86Z"/>
  <path class="cls-1" d="M684.67,305.35c.13-10.31-8.03-18.86-18.24-19.12-10.01-.26-18.99,8.13-19.44,18.14-.42,10.11,7.74,19.02,17.91,19.54,10.86.55,19.6-7.67,19.77-18.56Z"/>
  <path class="cls-1" d="M55.05,352.27c9.3-.23,19.64-10.21,19.31-18.63-.39-9.88-10.31-19.28-19.99-18.99-8.97.26-17.26,9.53-17.04,19.12.23,9.46,9.07,18.73,17.72,18.53v-.03Z"/>
  <path class="cls-1" d="M36.35,277.16c-10.27-.16-18.53,8.19-18.3,18.63.16,9.85,8.26,17.65,18.24,17.56,11.54-.13,18.11-6.73,18.04-18.21-.03-9.75-8.06-17.78-17.98-17.98Z"/>
  <path class="cls-1" d="M186.2,98.48c.23,9.95,8.26,17.62,18.4,17.52,9.92-.1,17.98-8.19,17.95-18.01,0-9.88-8.03-17.98-17.95-18.11-10.34-.16-18.66,8.26-18.43,18.63l.03-.03Z"/>
  <path class="cls-1" d="M321.06,175.01c.26,9.88,8.55,17.82,18.37,17.59,9.95-.2,17.91-8.26,17.91-18.14s-8.84-18.63-18.99-18.17c-9.79.46-17.59,8.88-17.3,18.73Z"/>
  <path class="cls-1" d="M688.51,230.8c-10.4-.36-18.99,7.8-19.02,18.08-.03,9.95,7.84,17.88,17.91,18.08,9.98.2,18.24-7.61,18.5-17.49.26-9.85-7.64-18.3-17.39-18.66h0Z"/>
  <path class="cls-1" d="M652.58,207.26c-10.27-.42-18.86,7.87-18.86,18.24s8.03,17.91,17.95,18.01c10.05.1,18.01-7.58,18.27-17.62.23-9.95-7.45-18.21-17.36-18.6v-.03Z"/>
  <path class="cls-1" d="M205.55,60.47c.36,9.85,8.71,17.75,18.53,17.52,9.85-.23,17.82-8.45,17.78-18.3-.07-9.82-8.23-17.98-18.08-18.04-10.31-.07-18.6,8.49-18.24,18.82Z"/>
  <path class="cls-1" d="M270.99,184.96c-.13,10.01,7.64,18.17,17.56,18.43,9.85.26,18.24-7.58,18.63-17.46.42-10.18-8.13-19.18-18.11-19.12-9.72.07-17.91,8.26-18.04,18.14h-.03Z"/>
  <path class="cls-1" d="M430.07,212.43c-.49,9.95,7.12,18.21,17.04,18.4,9.46.2,17.43-7.19,17.91-16.58.49-9.75-7.45-18.3-17.13-18.53-9.43-.2-17.36,7.22-17.82,16.71Z"/>
  <path class="cls-1" d="M493.86,250.31c9.59.46,17.78-6.83,18.34-16.29.59-9.56-6.6-17.82-16.09-18.5-9.79-.72-17.82,6.01-18.76,15.74-.98,10.01,6.44,18.56,16.48,19.05h.03Z"/>
  <path class="cls-1" d="M80.08,458.58c-.1,8.94,7.58,16.87,16.45,16.94,8.97.1,16.68-7.51,16.78-16.61.1-9.27-7.09-16.58-16.45-16.71-9.27-.13-16.71,7.12-16.81,16.39h.03Z"/>
  <path class="cls-1" d="M13.85,403.99c-.29,8,7.35,16.13,15.64,16.65,8.78.55,17.52-7.02,17.82-15.48.26-8.16-8.97-16.84-18.01-16.91-7.35-.07-15.15,7.9-15.41,15.74h-.03Z"/>
  <path class="cls-1" d="M466.81,134.47c-8.78.13-15.77,7.19-15.74,15.96,0,8.78,7.02,15.8,15.77,15.93,9.3.1,16.52-7.22,16.19-16.48-.29-8.84-7.32-15.54-16.22-15.41Z"/>
  <path class="cls-1" d="M592.7,201.67c-8.78.1-15.74,7.19-15.67,15.96.07,8.75,7.15,15.74,15.96,15.7,8.68-.03,15.74-7.25,15.64-15.96-.1-8.81-7.19-15.8-15.9-15.7h-.03Z"/>
  <path class="cls-1" d="M41.62,214.29c-7.87.1-14.57,6.93-14.5,14.76.07,7.74,7.06,14.5,14.86,14.4,8.03-.1,14.4-6.73,14.27-14.79-.1-8.13-6.6-14.53-14.66-14.4l.03.03Z"/>
  <path class="cls-1" d="M477.93,256.62c.16-7.97-6.31-14.66-14.31-14.76-8.1-.13-14.63,6.14-14.76,14.18-.13,8.16,6.05,14.6,14.21,14.79,7.97.2,14.73-6.27,14.86-14.21h0Z"/>
  <path class="cls-1" d="M413.43,247.68c-.23,8.06,5.98,14.7,14.05,14.96,7.9.23,14.76-6.18,14.96-14.05.23-7.97-6.18-14.79-14.11-15.02-8.03-.26-14.7,6.08-14.92,14.14l.03-.03Z"/>
  <path class="cls-1" d="M400.06,213.73c-7.97-.13-14.73,6.27-14.96,14.18-.23,7.64,6.5,14.6,14.4,14.83,7.93.23,14.63-6.24,14.73-14.24.1-8.16-6.11-14.66-14.18-14.79v.03Z"/>
  <path class="cls-1" d="M280.62,10.6c-8.26-.07-14.44,6.27-14.34,14.66.1,8.36,6.4,14.37,14.83,14.18,7.77-.16,13.79-6.27,13.95-14.11.16-8.13-6.24-14.7-14.44-14.73Z"/>
  <path class="cls-1" d="M545.68,383.48c.36,8.1,5.01,12.52,13.1,13.43,8.1-.55,12.84-4.84,13.59-12.84.65-6.96-6.27-14.27-13.3-14.7-7.12-.42-13.69,6.24-13.36,14.14l-.03-.03Z"/>
  <path class="cls-1" d="M1.31,323.23c-.55,8.1,5.2,14.4,12.81,14.66,7.15.23,13.95-6.44,13.69-14.08-.29-8.1-4.84-13.17-12.97-13.3-8.13-.16-12.94,4.62-13.49,12.74l-.03-.03Z"/>
  <path class="cls-1" d="M654.96,252.26c-7.64-.2-14.08,6.57-13.23,14.18.88,8,5.59,12.84,13.82,12.52,8.26-.33,12.09-5.72,12.91-13.56-1.14-7.93-5.17-12.91-13.49-13.13Z"/>
  <path class="cls-1" d="M69.09,161.94c-8.03,0-12.87,4.88-13.46,12.97-.55,7.38,6.4,14.21,13.92,13.62,8.1-.65,12.32-5.53,13.04-13.69-.94-7.97-5.4-12.94-13.46-12.91h-.03Z"/>
  <path class="cls-1" d="M602.35,454.22c-.2,8.16,4.58,12.91,12.61,13.69,7.54.72,14.4-5.85,14.08-13.39-.36-8.26-5.49-12.22-13.43-13.39-7.71.94-13.1,4.84-13.26,13.1h0Z"/>
  <path class="cls-1" d="M691.11,200.76c-7.58-.78-14.27,5.82-13.95,13.52.29,8.32,5.36,12.29,13.17,13.46,8.1-.78,13.17-5.14,13.43-13.2.29-8.13-4.62-12.97-12.61-13.79h-.03Z"/>
  <path class="cls-1" d="M15.22,262.5c.85,8.1,5.85,12.84,13.85,12.48,8-.33,12.35-5.46,12.78-13.56-.72-8.29-5.4-12.71-13.39-13.17-7.45-.39-14.05,6.7-13.23,14.21v.03Z"/>
  <path class="cls-1" d="M608.33,256.52c-.85,7.77,5.17,14.27,13.04,14.21,8.29-.07,12.52-4.81,13.65-12.74-.55-8.03-4.52-13.3-12.71-13.69-8-.36-13.1,4.03-13.98,12.22h0Z"/>
  <path class="cls-1" d="M711.07,287.54c8.03-.42,13.04-4.91,13.2-13.1.2-8.29-4.94-12.42-12.91-13.56-7.93.55-12.97,4.55-13.79,12.65-.75,7.38,5.98,14.4,13.49,14.01h0Z"/>
  <path class="cls-1" d="M339.88,1.76c-8.16.91-13.17,5.33-13.1,13.43.1,8.03,4.97,12.78,13.1,13.26,7.61.46,14.08-6.24,13.49-13.88-.62-8.23-5.62-12.19-13.49-12.81Z"/>
  <path class="cls-1" d="M607.1,92.24c.07-7.35-5.88-13.46-13.33-13.1-7.64.36-12.29,4.42-12.81,12.32-.49,7.48,5.14,13.52,12.58,13.75,7.22.23,13.49-5.79,13.56-13v.03Z"/>
  <path class="cls-1" d="M141.33,187.53c0,7.87,4.84,11.7,12.45,12.61,7.51-.85,12.35-4.84,12.39-12.58.07-7.77-4.81-12.32-12.42-12.32s-12.42,4.39-12.42,12.29Z"/>
  <path class="cls-1" d="M148.62,421.91c-1.14-5.2-5.46-9.72-8-13.95-9.69,2.31-15.61,5.07-15.93,13.17-.29,7.48,4.26,11.61,11.22,12.65,6.6,1.01,14.11-5.4,12.71-11.83v-.03Z"/>
  <path class="cls-1" d="M518.02,129.56c-4.94.85-9.17,5.85-13.72,9.01v4.94c4.52,3.25,8.58,8,13.59,9.4,6.27,1.76,12.94-5.56,12.39-12.19-.65-7.32-5.33-12.35-12.26-11.15h0Z"/>
  <path class="cls-1" d="M188.83,48.28c-7.97.07-13.1,5.2-11.67,12.65.91,4.88,6.27,8.94,9.62,13.36,1.59-.03,3.22-.07,4.84-.1,3.28-4.52,8.58-8.71,9.33-13.62,1.17-7.48-4.26-12.39-12.13-12.29Z"/>
  <path class="cls-1" d="M416.32,94.09c0,7.28,4.88,12.42,11.93,11.22,4.94-.85,9.23-5.66,13.82-8.71l.1-5.07c-4.45-3.19-8.55-8.29-13.46-9.2-7.67-1.43-12.42,4.13-12.39,11.8v-.03Z"/>
  <path class="cls-1" d="M394.86,113.89c4.81-.98,8.78-6.24,13.13-9.59-.07-1.66-.13-3.32-.2-5.01-4.62-2.99-9.01-7.8-13.98-8.52-6.99-.98-11.67,4.29-11.61,11.57.07,7.84,5.17,13,12.61,11.51l.03.03Z"/>
  <path class="cls-1" d="M512.23,204.18c.1,7.71,4.91,13.17,12.48,11.67,4.84-.98,8.84-6.21,13.2-9.56-.07-1.69-.1-3.35-.16-5.01-4.58-2.99-8.91-7.84-13.82-8.55-6.96-1.04-11.74,4.16-11.67,11.44h-.03Z"/>
  <path class="cls-1" d="M440.35,108.98c-7.41.13-12.32,5.17-11.18,12.03.81,4.91,5.85,9.07,9.01,13.59,1.69,0,3.38,0,5.04.03,3.19-4.49,8.29-8.62,9.07-13.46,1.24-7.58-4.16-12.32-11.96-12.19h.03Z"/>
  <path class="cls-1" d="M247.23,20.78c-6.96-.81-11.54,4.62-11.28,11.9.29,7.25,5.2,12.39,12.13,11.02,4.84-.98,8.88-6.14,13.26-9.46-.07-1.66-.13-3.32-.2-4.97-4.62-2.96-9.04-7.87-13.95-8.45l.03-.03Z"/>
  <path class="cls-1" d="M247.71,326.16c1.56-.07,3.15-.13,4.75-.16,2.73-4,8.52-9.07,7.54-11.77-1.66-4.71-6.96-10.21-11.64-11.25-6.53-1.43-11.48,4.55-10.01,11.05,1.04,4.52,6.11,8.13,9.36,12.13Z"/>
  <path class="cls-1" d="M526.44,35.89c-6.79-.85-11.83,4.36-10.01,10.96,1.11,4,6.79,9.07,10.7,9.3,3.71.23,7.8-5.17,11.74-8.06-.07-1.53-.1-3.06-.13-4.58-4.06-2.67-7.97-7.06-12.29-7.58v-.03Z"/>
  <path class="cls-1" d="M575.86,110.77c.55-3.58-4.62-8.03-7.25-12.09-1.63,0-3.25,0-4.88-.03-2.63,4.03-7.48,8.19-7.28,12.09.16,3.51,6.27,9.72,9.04,9.36,4.03-.52,9.79-5.53,10.37-9.33Z"/>
  <path class="cls-1" d="M552.8,201.25c3.64,3.41,6.89,8.91,10.99,9.59,3.06.52,7.15-5.17,13.52-10.31-6.79-4.32-11.02-9.1-14.5-8.62-3.71.52-6.73,6.01-10.05,9.33h.03Z"/>
  <path class="cls-1" d="M343.59,64.86c-2.54,3.8-7.38,7.9-6.96,11.31.46,3.67,5.88,6.76,9.1,10.08,3.28-3.28,8.71-6.31,9.17-9.95.46-3.48-4.32-7.61-6.79-11.41-1.5,0-3.02-.03-4.55-.07l.03.03Z"/>
  <path class="cls-1" d="M139.9,238.25c-2.41,3.9-7.12,8.16-6.57,11.57.62,3.64,6.18,6.47,9.62,9.66,3.15-3.45,8.52-6.73,8.81-10.37.29-3.45-4.78-7.32-7.51-10.99-1.46.07-2.89.1-4.36.16v-.03Z"/>
  <path class="cls-1" d="M275.35,62.55c3.48.39,7.54-4.52,11.38-7.09v-4.32c-3.87-2.54-8-7.45-11.51-7.06-3.64.42-6.66,5.98-9.98,9.33,3.35,3.25,6.47,8.75,10.11,9.14Z"/>
  <path class="cls-1" d="M165.04,214.09c-3.38,0-9.01,5.49-9.43,9.1-.46,3.45,4.49,7.61,7.06,11.44,1.43,0,2.86.03,4.29.07,2.63-3.77,7.58-7.8,7.22-11.28-.36-3.64-5.88-9.33-9.14-9.33Z"/>
  <path class="cls-1" d="M51.5,250.15c3.35,3.28,6.5,8.81,10.14,9.17,3.51.36,7.54-4.65,14.44-9.49-7.02-4.62-11.18-9.53-14.7-9.1-3.64.46-6.6,6.05-9.88,9.43Z"/>
  <path class="cls-1" d="M594.61,259.38c2.96.55,7.02-4.55,12.91-8.78-5.66-4.52-9.46-9.82-12.48-9.36-3.87.55-7.09,5.66-10.6,8.81,3.35,3.32,6.31,8.58,10.14,9.33h.03Z"/>
  <path class="cls-1" d="M188.22,123.84c-3.45-.36-7.48,4.78-14.21,9.62,6.79,4.58,10.89,9.56,14.34,9.1,3.67-.49,9.3-6.11,9.23-9.36-.1-3.41-5.69-8.97-9.33-9.36h-.03Z"/>
  <path class="cls-1" d="M631.91,207.13c.03-3.71-4.55-7.48-7.15-11.22-1.5.07-2.99.1-4.49.13-2.41,3.9-7.15,8.26-6.57,11.61.65,3.54,6.21,8,10.05,8.45,2.5.29,8.1-5.75,8.13-9.01l.03.03Z"/>
  <path class="cls-1" d="M602.39,278.99c-.88-3.8-6.11-6.6-9.46-9.85-3.06,3.22-8.49,6.37-8.58,9.66-.1,3.64,4.68,7.45,9.36,14.05,4.52-6.79,9.33-10.96,8.68-13.85Z"/>
  <path class="cls-1" d="M527.97,123.35c.55,3.54,4.78,8.16,8.23,9.01,2.28.55,8.23-4.58,8.42-7.48.26-3.41-3.9-7.19-7.8-13.46-4.52,5.75-9.3,9.27-8.84,11.93Z"/>
  <path class="cls-1" d="M82.75,341.57c.88,3.41,5.33,5.95,8.26,8.84,2.67-2.73,7.51-5.49,7.45-8.16-.1-3.35-4.19-6.57-8.29-12.26-3.74,5.53-8.03,9.2-7.41,11.57Z"/>
  <path class="cls-1" d="M657.27,336.04c.29-1.98-5.07-7.02-6.89-6.57-3.51.85-7.84,4.13-8.88,7.35-.72,2.15,3.67,5.95,7.58,11.61,4.1-5.79,7.67-8.88,8.19-12.42v.03Z"/>
  <path class="cls-1" d="M490.25,324.01c2.8,2.89,5.23,7.28,8.55,8.13,2.28.55,5.79-3.87,11.28-7.93-5.49-3.54-8.68-7.22-11.38-6.89-3.02.36-5.66,4.32-8.45,6.73v-.03Z"/>
  <path class="cls-1" d="M620.79,238.05c3.06-.55,7.35-4.36,7.64-7.22.33-2.7-3.77-5.88-7.77-11.41-3.58,5.82-7.09,9.01-6.93,12.06.13,2.47,5.01,6.96,7.06,6.57Z"/>
  <path class="cls-1" d="M580.02,433.25c.65,3.15,4.29,7.45,7.19,7.87,2.7.42,6.11-3.54,11.93-7.35-5.85-3.71-9.01-7.25-12.03-7.19-2.6.1-7.48,4.84-7.09,6.63v.03Z"/>
  <path class="cls-1" d="M364.92,302.95c.42,3.15,3.74,7.77,6.53,8.32,2.67.52,6.18-3.32,12.06-6.89-5.49-3.93-8.39-7.61-11.44-7.74-2.47-.1-7.38,4.39-7.15,6.34v-.03Z"/>
  <path class="cls-1" d="M171.47,113.86c-.49,1.76,4.06,6.79,6.6,6.99,3.06.26,6.4-3.06,12.48-6.37-5.62-4.16-8.75-8.26-11.51-8.03-2.89.23-6.73,4.32-7.61,7.41h.03Z"/>
  <path class="cls-1" d="M226.45,247.06c-5.95-3.61-9.43-7.38-12.06-6.86-2.89.55-6.31,4.78-6.93,7.93-.36,1.69,4.62,6.27,7.22,6.31,2.99,0,6.01-3.54,11.8-7.38h-.03Z"/>
  <path class="cls-1" d="M239.19,249.46c2.7.55,6.24-3.09,12.29-6.5-5.59-4.06-8.49-7.74-11.51-7.84-2.47-.13-7.45,4.23-7.22,6.14.36,3.09,3.67,7.61,6.44,8.19Z"/>
  <path class="cls-1" d="M505.01,31.05c.16-3.09-3.22-6.37-6.63-12.32-3.97,5.56-8,8.71-7.77,11.54.26,2.83,4.39,6.7,7.45,7.41,1.85.42,6.83-4.13,6.99-6.63h-.03Z"/>
  <path class="cls-1" d="M453.9,185.64c2.96.29,6.27-2.99,12.42-6.31-5.66-4.26-8.78-8.36-11.44-8.1-2.86.29-6.66,4.36-7.41,7.41-.46,1.85,3.93,6.73,6.44,6.99Z"/>
  <path class="cls-1" d="M162.66,156.12c.59,3.09,4.62,5.56,7.15,8.29,2.5-2.73,6.47-5.23,7.06-8.36.42-2.31-3.64-5.4-7.12-10.05-3.48,4.68-7.51,7.84-7.09,10.11Z"/>
  <path class="cls-1" d="M231.1,105.24c-3.06.85-6.99,4.68-7.25,7.54-.23,2.67,3.87,5.72,8.13,11.38,3.25-6.21,6.47-9.59,6.14-12.52-.29-2.54-5.27-6.89-7.02-6.4Z"/>
  <path class="cls-1" d="M366.41,216.17c3.09-.42,7.45-3.84,8.06-6.66.55-2.6-3.12-6.11-6.7-12.19-4,5.75-7.64,8.71-7.67,11.67,0,2.57,4.42,7.48,6.27,7.19h.03Z"/>
  <path class="cls-1" d="M218.58,123.94c-3.12.85-7.19,4.49-7.54,7.38-.33,2.67,3.64,5.88,7.67,11.61,3.45-5.98,6.79-9.2,6.6-12.19-.2-2.57-5.04-7.22-6.7-6.79h-.03Z"/>
  <path class="cls-1" d="M340.31,287.73c-.29,2.99,3.09,6.34,6.31,12.09,4.1-5.2,8.23-8.16,7.87-10.47-.46-3.09-3.93-6.96-6.93-7.93-1.72-.55-6.99,3.84-7.22,6.31h-.03Z"/>
  <path class="cls-1" d="M103.82,178.62c-3.12.42-7.54,3.77-8.13,6.57-.55,2.63,3.15,6.14,6.66,12.19,4-5.66,7.61-8.58,7.67-11.57.07-2.54-4.32-7.45-6.21-7.19Z"/>
  <path class="cls-1" d="M309.58,19.15c2.57-2.31,6.99-4.42,7.22-6.93.23-2.96-3.12-6.24-6.31-11.87-3.97,5.1-8,8.06-7.64,10.37.46,3.06,4.32,5.62,6.73,8.42Z"/>
  <path class="cls-1" d="M118.54,446.36c2.7.46,5.98-2.34,11.77-4.97-4.91-4.19-7.35-7.84-10.11-8.13-2.21-.23-6.37,3.48-6.73,5.88-.33,2.21,2.89,6.79,5.07,7.19v.03Z"/>
  <path class="cls-1" d="M548.51,135.25c2.37,2.41,4.42,6.08,7.22,6.76,1.95.46,4.88-3.25,8.97-6.27-4.1-2.99-6.7-6.31-9.07-6.18-2.47.13-4.78,3.64-7.12,5.69Z"/>
  <path class="cls-1" d="M505.27,166.23c.2,2.37,3.9,6.14,6.14,6.21,2.21.07,6.05-3.58,6.37-5.95.29-2.24-3.09-4.97-5.98-9.07-3.12,4-6.7,6.53-6.5,8.81h-.03Z"/>
  <path class="cls-1" d="M666.04,151.7c.23-2.31-3.19-4.97-6.21-9.14-3.02,4.23-6.47,6.93-6.21,9.23.29,2.44,4.03,4.52,6.27,6.76,2.18-2.28,5.88-4.39,6.14-6.86h0Z"/>
  <path class="cls-1" d="M537.17,104.59c2.21,2.54,4.03,6.21,6.76,7.09,1.72.55,4.81-3.12,8.88-6.05-3.84-3.12-6.24-6.6-8.49-6.53-2.44.1-4.75,3.51-7.15,5.46v.03Z"/>
  <path class="cls-1" d="M499.58,142.79c-.26-2.41-3.8-4.42-5.92-6.6-2.28,2.41-5.79,4.58-6.4,7.35-.39,1.82,3.41,4.55,6.73,8.49,2.76-4.23,5.88-6.93,5.59-9.23Z"/>
  <path class="cls-1" d="M625.86,102.15c-4.91-2.63-7.71-5.3-10.27-5.14-1.92.13-5.04,4.13-4.91,6.18.16,2.08,3.8,5.59,5.75,5.46,2.57-.16,4.97-3.25,9.46-6.53l-.03.03Z"/>
  <path class="cls-1" d="M439.14,6.41c-1.14-.39-4.88,2.99-5.04,4.88-.2,2.21,2.21,4.65,4.62,9.07,3.09-4.06,6.18-6.34,5.95-8.29-.23-2.18-3.19-4.88-5.53-5.66Z"/>
  <path class="cls-1" d="M386.51,43.44h0c-1.27,0-2.05-.65-2.28-1.72.23,1.11,1.01,1.72,2.28,1.72Z"/>
  <path class="cls-1" d="M79.5,395.31c.26.1.55.13.88.13h0c-.33,0-.62-.07-.88-.13Z"/>
</svg>