<?xml version="1.0" encoding="UTF-8"?>
<svg id="Layer_1" data-name="Layer 1" xmlns="http://www.w3.org/2000/svg" viewBox="0 0 686.64 225.91">
  <defs>
    <style>
      .cls-1, .cls-2 {
        fill: #052850;
      }

      .cls-3 {
        fill: #0d94fb;
      }

      .cls-2 {
        font-family: Poppins-Bold, Poppins;
        font-size: 59.67px;
        font-weight: 700;
      }

      .cls-4 {
        fill: none;
        stroke: #032751;
        stroke-miterlimit: 10;
        stroke-width: 4.5px;
      }
    </style>
  </defs>
  <circle class="cls-3" cx="179.15" cy="108.95" r="11.72"/>
  <circle class="cls-3" cx="142.15" cy="105.95" r="11.72"/>
  <circle class="cls-3" cx="132.15" cy="59.95" r="11.72"/>
  <circle class="cls-3" cx="159.15" cy="37.95" r="11.29"/>
  <circle class="cls-3" cx="195.15" cy="56.95" r="11.29"/>
  <circle class="cls-3" cx="131.15" cy="22.95" r="11.29"/>
  <circle class="cls-3" cx="67.15" cy="114.95" r="11.29"/>
  <circle class="cls-3" cx="75.15" cy="67.95" r="11.29"/>
  <circle class="cls-3" cx="40.15" cy="97.95" r="11.29"/>
  <circle class="cls-3" cx="36.15" cy="130.95" r="9.4"/>
  <circle class="cls-3" cx="101.15" cy="97.95" r="7.83"/>
  <circle class="cls-3" cx="47.15" cy="52.95" r="7.83"/>
  <circle class="cls-3" cx="218.96" cy="127.49" r="11.72"/>
  <g>
    <path class="cls-1" d="M203.7,115.08c-.57-.45-1.14-.9-1.71-1.34-.43.97-.73,2.03-1.31,2.9-1.37,2.05-2.75,4.1-4.34,5.98-3.45,4.1-3.5,4.05-6.23-.43-.06-.1-.38-.05-.82-.08,0,1.37-.14,2.75.03,4.09.43,3.4-.79,5.59-3.95,7.2-4.17,2.13-8.07,4.8-12.14,7.16-.94.55-2.63,1.37-3,1.02-.91-.85-1.54-2.27-1.71-3.53-.14-1.06.54-2.23.85-3.35,1.07-3.91,2.14-7.82,3.22-11.72l-1-.3c-1.29,3.1-2.78,6.13-3.82,9.31-1.14,3.51-2.19,7.11-2.66,10.76-.3,2.31-.78,3.86-3.1,4.58-2.36.73-4.62,1.79-7.01,2.38-6.41,1.57-12.56,3.68-17.79,7.91-.08.06-.34-.1-.96-.29,1.4-2.7,2.63-5.41,4.15-7.95,3.16-5.29,7.26-9.22,13.49-11.19,2.94-.92,5.56-3.87,7.54-6.5,1.81-2.41,2.92-5.53,3.69-8.51.75-2.89.68-6,.98-9.02-.46-.03-.92-.06-1.38-.09-.2,1.65-.1,3.43-.66,4.95-1.67,4.45-3.43,8.88-5.55,13.13-.52,1.03-2.53,1.32-3.85,1.96-.2-.31-.4-.63-.59-.94,3.67-6.18,6.4-12.54,4.28-20.5-3.9,3.89-1.52,10.11-6.26,13.13-1.07-1.95-2.05-3.73-3.03-5.51-.29.08-.58.16-.87.24.09,1.88.03,3.78.32,5.63.62,3.82-.09,6.95-3.59,9.18-2.3,1.47-3.94,1.26-4.59-1.41-.54-2.2-.4-4.62-.23-6.91.15-1.99.75-3.94,1.15-5.91-3.46,3.67-5,11.5-4.23,16.98.14,1.02.4,2.35-.09,3.06-2.53,3.68-5.29,7.21-8.04,10.89-.33-.48-.54-.72-.67-1-3.18-6.88-.16-14.02-.78-21.01-.06-.74.92-1.63,1.52-2.36,2.59-3.1,3.3-6.6,2.41-10.96-.35,2.15-.45,3.89-.95,5.5-.72,2.31-2.59,3.07-4.86,2.65-2.49-.46-1.97-2.39-1.77-4.09.21-1.81.62-3.61.66-5.42.03-1.59-.34-3.18-.59-5.22-.91.7-1.34.86-1.37,1.07-.8,5.59-4.93,11.07-.53,16.87.58.76.89,2.16.62,3.05-.4,1.34-1.2,2.78-2.28,3.61-.49.37-2.14-.42-3.07-1.01-2.66-1.68-2.68-4.36-2.53-7.15.14-2.64.03-5.29.03-7.94-.51.04-1.02.09-1.53.13.64,6.76-3.4,13.95,3.32,20.17,3.4,3.14,3.57,9.23,1.3,13.04-.77-1.02-1.47-1.91-2.14-2.82-1.86-2.49-3.52-5.16-5.6-7.45-4.79-5.25-5.09-7.17-2.48-13.82.85-2.17,1.01-4.71,1.06-7.09.05-2.18-.44-4.38-.7-6.57-2.6.52-1.12,2.42-1.23,3.79-.22,2.7-.05,5.54-.86,8.06-.8,2.48-2.53,4.69-4.04,6.89-.33.49-1.52.81-2.15.62-4.12-1.26-6-6.2-3.84-9.93.91-1.58,2.06-3.01,2.97-4.59,1.73-3,1.76-6.21,1.17-9.57-1.47,4.79-1.87,10.05-7.79,12.19-.86-3.21-1.67-6.23-2.47-9.26-.5.04-.99.07-1.49.12-.3,1.57-.87,3.16-.85,4.73.2,10.32,5.65,18.09,12.93,24.58,4.93,4.39,7.58,9.86,9.89,15.37-4.5-2.05-8.94-4.35-13.59-6.09-4.37-1.63-7.28-4.36-8.72-8.75-.76-2.35-1.42-4.74-2.37-7.01-1.38-3.28-3.8-5.68-6.93-7.37.07.71.33,1.29.76,1.67,4.3,3.78,5.48,8.81,5.7,14.2.12,2.81-.68,3.3-3.24,2.01-3.89-1.97-7.32-4.34-9.13-8.64-1.29-3.06-3.09-5.89-4.66-8.83-.28.05-.56.11-.84.17v7.31c-5.19-1.61-9.75-4.49-13.07-8.6-2.35-2.91-4.25-6.17-6.49-9.17-.95-1.27-2.25-2.29-3.39-3.42-.56,1.1-.63,1.77-.39,2.3,3.48,7.79,7.61,15.15,14.48,20.55,2.78,2.19,5.67,4.25,8.41,6.49.76.62,1.83,1.88,1.63,2.43-.32.89-1.52,1.92-2.46,2.06-3.07.43-6.18.47-9.27.68-1.15.07-2.31.2-3.46.3.01.32.02.64.03.96,6.41.83,12.72,2.2,19.35,1.44,2.84-.33,6.1-.05,8.68,1.08,5.09,2.22,9.89,5.15,14.72,7.93,9.54,5.49,13.54,13.99,13.06,24.77-.08,2.02-.18,4.13-.85,6-2.65,7.49-6.32,13.97-14.4,17.25-5.59,2.27-10.74,4.81-17.14,4.53-8.34-.37-16.72.29-25.08.56-.7.02-1.4.42-2.09.64.94.76,1.74.88,2.55.88,15.75-.03,31.5-.06,47.24-.11,3.29-.01,6.77.63,9.42-2.42-.13.71-.26,1.41-.41,2.18h28.69v-2.18c2.44.81,4.79,2.19,7.18,2.27,14.13.43,28.27.58,42.42.77,1.11.02,2.24-.31,3.36-.48,0-.39-.02-.79-.02-1.17-4.51-.64-9.01-1.62-13.54-1.85-8.5-.43-16.54-2.51-24.03-6.36-3.84-1.98-8.97-2.99-9.31-8.88-.04-.61-.8-1.29-1.39-1.71-2.49-1.8-2.98-4.3-2.72-7.13.13-1.39.33-2.81.15-4.17-1.11-8.81,2.62-16.08,8.63-21.61,6.88-6.35,14.98-10.54,25.19-7.78,5.63,1.53,11.31-.24,16.86-1.89-3.17-.53-6.38-.19-9.46-.66-1.88-.29-3.56-1.84-5.33-2.82,1.12-1.29,2.03-2.87,3.39-3.81,9.63-6.71,18.1-14.44,23.22-25.27.83-1.75,1.46-3.6,2.18-5.4Z"/>
    <polygon class="cls-1" points="107.97 114.12 107.97 114.12 107.97 114.13 107.97 114.12"/>
    <path class="cls-1" d="M108.03,114.19s-.06-.06-.06-.06c0,.03,0,.05.01.08.02,0,.04,0,.06-.01h0Z"/>
    <path class="cls-1" d="M232.2,126.57c.25-7.17-5.63-12.46-14.04-12.64-5.77-.13-11.67,6.36-11.83,13.01-.17,7.09,5.15,12.64,12.4,12.94,7.37.3,13.19-5.45,13.46-13.3ZM226.92,125.58c.26.24.28.58.05.9-.04.06-.1.12-.14.18-.08.13-.18.17-.35.19-.21.02-.44.1-.6.24-.74.59-1.45,1.2-2.18,1.81-.08.06-.16.13-.28.23,0-.44,0-.82,0-1.2,0-.06.06-.14.11-.18.83-.72,1.67-1.43,2.51-2.13.29-.25.64-.26.89-.03ZM223.41,126.28s.02-.07.04-.09c.16-.15.35-.23.57-.19.23.04.4.17.47.39.02.05,0,.15-.04.18-.33.29-.66.57-1.04.9v-1.18ZM222.55,121.27c-.05.42-.42.69-.85.62v-1.11c.16,0,.32,0,.48,0,.24.02.4.24.37.49ZM217.93,118.14c.9-.67,2.08-.71,3.06-.12.83.5,1.39,1.59,1.25,2.46-.18,0-.36,0-.55,0-.5-.02-1-.02-1.49-.08-.55-.07-1.03-.33-1.45-.68-.14-.11-.23-.12-.36,0-.17.16-.38.29-.54.46-.28.32-.62.34-1.03.28-.02-.96.35-1.74,1.11-2.32ZM219.71,123.91c-.96.07-1.83-.55-1.98-1.47-.08-.55-.04-1.12-.05-1.68,0-.04.03-.09.07-.12.26-.23.53-.45.82-.68.83.67,1.78.88,2.84.81v.49c0,.31.01.62,0,.92-.04.92-.79,1.68-1.69,1.74ZM220.06,125.2c-.35.22-.71.21-1.06,0-.44-.29-.5-.72-.45-1.22.66.3,1.31.31,1.98-.01.05.52-.02.95-.47,1.23ZM216.59,120.98c.1-.2.3-.25.79-.2v1.09c-.29.07-.54-.02-.71-.26-.14-.19-.19-.4-.08-.63ZM215.98,126.09c.09-1.03.95-1.81,2-1.88.08,0,.16,0,.27,0-.02.47.12.86.49,1.15.24.2.52.3.83.29.72-.02,1.15-.49,1.29-1.43,1.12-.1,2.18.78,2.25,1.95.06,1.05.01,2.11.01,3.18h-2.26s.03-.08.05-.12c.31-.6-.06-1.28-.74-1.28-.89-.01-1.78.02-2.67.03h-.13c0-.29,0-.58,0-.86,0-.12.06-.32-.13-.32-.21,0-.15.2-.15.33,0,.29,0,.59,0,.88-.39.13-.75.25-1.12.37,0-.76-.05-1.53.01-2.29ZM216.29,133.75c-.06.15-.13.2-.3.2-1.63,0-3.26,0-4.9,0h-.28c.31-.55.57-1.08.88-1.56.94-1.47,2.2-2.58,3.74-3.39.56-.29,1.12-.59,1.76-.68.38-.05.76-.07,1.14-.08.6-.01,1.2-.01,1.79,0,.47.01.74.43.55.82-.11.23-.31.32-.56.32h-2.23c-.06,0-.13-.01-.18.02-.05.02-.1.08-.1.13,0,.05.05.11.1.13.05.03.12.02.18.02,1.71,0,3.42,0,5.13,0,.13,0,.27-.06.37-.14.89-.73,1.76-1.47,2.65-2.2.39-.33.89-.22,1.03.23.07.23.02.44-.15.61-.92.93-1.83,1.86-2.78,2.77-.62.6-1.41.85-2.26.95-1.31.15-2.61.32-3.91.51-.81.12-1.38.6-1.68,1.37Z"/>
    <path class="cls-1" d="M220.68,119.61c.09,0,.18.02.27,0,.06-.02.11-.08.16-.12-.05-.05-.1-.12-.16-.15-.04-.02-.11,0-.16,0-.53.03-1-.13-1.4-.48-.05-.04-.16-.02-.25-.03.03.08.03.19.08.24.4.38.89.56,1.45.55Z"/>
    <path class="cls-1" d="M219.99,122.55c-.34.22-.57.22-.91,0-.05-.04-.15,0-.23-.01.02.08.01.2.06.23.19.11.4.2.62.3.22-.1.43-.18.62-.3.05-.03.04-.14.06-.22-.07,0-.17-.03-.23.01Z"/>
    <path class="cls-1" d="M218.96,121.48c0-.15-.13-.28-.27-.28-.15,0-.3.14-.3.29s.15.29.3.29c.14,0,.27-.14.27-.29Z"/>
    <path class="cls-1" d="M220.41,121.19c-.15-.01-.29.12-.29.28,0,.16.13.3.29.29.15,0,.27-.13.28-.29,0-.15-.12-.28-.27-.29Z"/>
    <path class="cls-1" d="M67.44,127c7.13.12,13.69-5.98,13.4-12.99-.27-6.57-4.95-12.55-12.64-12.8-7.32-.23-13.22,5.41-13.32,12.7-.09,7.11,5.53,12.97,12.56,13.09ZM71.35,107.63c.2-.24.42-.47.62-.72.05-.06.05-.16.09-.23.03-.06.1-.14.14-.14.12,0,.11.1.07.19-.02.05-.02.11,0,.17.08-.1.16-.18.24-.28.04.04.06.06.05.06-.04.26.06.47.16.7.17.38.32.78.45,1.18.18.49.42.93.83,1.27.12.1.22.24.31.38.12.2.28.32.51.38.1.03.2.06.3.09.52.16.83.54.94,1.05.12.53.25,1.05.44,1.55.05.14-.05.35-.08.53h-.07c-.04-.15-.08-.3-.12-.45-.01-.04,0-.11-.03-.12-.21-.11-.12-.3-.14-.46-.04-.37-.08-.75-.12-1.12h-.07c-.02.18-.03.36-.04.54-.02.34-.08.67.06,1.02.07.18,0,.42.02.62.05.37.14.74.18,1.12.02.2,0,.4-.04.6-.01.04-.17.05-.27.08-.02-.06-.05-.13-.04-.18.01-.14.06-.27.06-.41.02-.58-.1-1.13-.31-1.68-.02.08-.05.16-.06.25-.04.49-.07.98-.12,1.47-.02.18-.03.38-.12.54-.09.16-.28.09-.46.03.32-.41.3-.9.39-1.36.14-.71-.13-1.34-.43-1.96-.02-.04-.08-.05-.13-.07,0,0-.01,0-.02,0-.46.07-.5.07-.49.55,0,.4-.01.8-.03,1.2-.01.38.05.76.07,1.14,0,.07-.02.15-.04.22-.01.05-.04.09-.03.14.02.24,0,.26-.24.26-.18,0-.37-.01-.56-.02-.03,0-.05-.02-.07-.03.34-.65.25-1.34.21-2.03-.01-.22.01-.44-.03-.65-.08-.39-.18-.78-.29-1.16-.07-.26-.11-.51,0-.76.1-.23.08-.44-.05-.66-.35-.6-.49-1.25-.53-1.93-.02-.21-.08-.42-.14-.63-.03-.11-.12-.16-.25-.13-.19.04-.38.08-.57.1-.07.01-.15-.02-.23-.03.02-.07.02-.15.06-.21ZM70.72,117.8s.05.01.1.02c-.03-.07-.05-.13-.07-.18-.05-.14,0-.21.16-.17.13.04.25.11.39.16,0,0,.01-.01.02-.02.22-.21.44-.23.68-.04.11.08.21.09.32.06.11-.03.22-.05.33-.09.06-.02.09,0,.1.06.04.11,0,.2-.07.27-.09.09-.19.17-.33.16-.02,0-.05,0-.04,0-.04.14-.06.26-.1.38-.06.16-.05.32.03.47.05.1.1.2.16.3.05.09.03.14-.06.17-.07.03-.14.05-.2.07-.18.07-.35.04-.52-.04-.07-.03-.12-.02-.16.04-.21.23-.32.5-.38.8-.04.16-.09.32-.14.47-.08.22-.24.35-.47.38-.08.01-.09.05-.1.12-.03.26-.08.52-.12.77,0,.04-.01.09,0,.13.03.2.06.4.16.58.03.04.03.09.06.16-.13,0-.23.02-.33.02-.03,0-.06-.04-.08-.06-.03-.03-.06-.06-.1-.09.12-.58-.03-1.14-.18-1.71h-.03s-.03.08-.05.12c-.1.26-.2.53-.3.8,0,.02-.02.04-.02.06,0,.21,0,.43.02.64,0,.04.05.08.07.12.04.07.08.15.13.22,0,.01-.02.02-.02.03-.13,0-.25.01-.37,0-.08-.01-.17-.14-.17-.22,0-.22.02-.44.02-.66,0-.23-.01-.46-.02-.7,0-.14-.01-.28-.01-.42s-.06-.21-.2-.21c-.17-.01-.31.07-.45.14-.12.06-.24.13-.37.17-.25.09-.51.08-.74-.04-.11-.05-.18-.05-.26.05-.03.03-.05.05-.08.07-.11.08-.18.17-.15.32,0,.03-.04.06-.05.09-.03-.03-.05-.06-.07-.09v-.03c0-.06-.02-.11-.08-.12-.07,0-.1.05-.1.12,0,.04,0,.08-.01.11-.02.03-.05.07-.08.07-.02,0-.07-.05-.07-.07.04-.18-.08-.21-.21-.23-.08-.02-.16-.05-.25-.09-.03.08-.06.16-.08.24-.04.21-.05.42.07.61.02.02.02.05.03.08.03.24.11.46.23.67.06.1.05.12-.06.14-.07.01-.14.02-.2.02-.08,0-.12-.02-.15-.12-.06-.22-.09-.44-.2-.64-.06-.1-.1-.23-.15-.34,0,.21,0,.42,0,.63,0,.07.05.13.09.19.03.05.06.1.09.15-.15.14-.37.11-.46-.08,0-.01-.02-.03-.03-.04-.08-.04-.09-.12-.09-.19,0-.36,0-.72,0-1.09,0-.06-.01-.13-.03-.18-.04-.11-.04-.22,0-.32.1-.24.13-.48.05-.73-.12-.38-.23-.76-.33-1.15-.04-.14-.02-.28-.03-.42,0-.05,0-.1,0-.15-.02,0-.03,0-.05,0,0,.06-.02.12-.02.17-.05.66,0,1.33.05,1.99.02.21.03.42.05.63.03.28-.04.54-.21.76,0,0-.02,0-.02,0-.02-.25-.04-.49-.04-.74,0-.12.04-.24.04-.36.01-.25.02-.51,0-.77-.03-.35-.08-.7-.12-1.05-.03-.34,0-.67.11-1,.11-.36.39-.55.77-.55.33,0,.66.03,1,.08.33.06.67.05,1.01.06.31.01.63.01.94,0,.17,0,.33-.04.5-.05.71-.06,1.42-.03,2.13.11ZM59.2,112.37c.04-.62.06-1.24.16-1.85.13-.78.55-1.4,1.28-1.76.54-.27,1.11-.35,1.7-.18.45.13.9.18,1.3,0,.05-.15.05-.29.12-.36.39-.41.85-.62,1.42-.49.33.07.65.16.98.18.42.02.73.18.99.5.45.56.65,1.24.92,1.89.12.27.16.51.51.51,0,0,.01.03.02.06-.08.02-.17.05-.25.07.03.05.06.09.1.16-.29-.02-.33.16-.36.36-.07.58-.15,1.15-.24,1.72-.03.2-.07.42-.16.6-.08.15-.23.28-.38.37-.07.04-.26-.02-.32-.09-.04-.05.02-.22.07-.31.04-.05.15-.05.23-.08.03,0,.05,0,.08.01,0-.89.03-1.77.03-2.66,0-.06-.06-.13-.11-.18-.32-.37-.8-.35-1.18-.55-.05.2-.04.45-.14.51-.13.07-.35,0-.54-.02-.02,0-.03.01-.05.01-.17.29-.15.57-.06.89.2.67.35,1.35.52,2.03.03.12.03.24.01.35-.04.24.01.42.21.57.05.04.09.16.07.21-.03.06-.13.11-.2.12-.23.01-.45,0-.68-.01-.19,0-.22-.1-.2-.28.03-.2.03-.41,0-.61-.05-.23-.15-.46-.23-.69-.05-.14-.12-.28-.18-.42-.02,0-.05,0-.07.01-.05.21-.09.42-.14.63-.03.13-.03.27-.08.39-.12.23-.12.43.05.65.13.17.07.28-.14.31-.21.03-.42.04-.63.03-.24-.01-.31-.15-.22-.37.06-.13.11-.26.14-.4.05-.31.1-.63.13-.94.05-.41.1-.82.15-1.29-.34.12-.59.21-.83.27-.38.1-.77.16-1.15.26-.17.04-.38.12-.47.25-.31.42-.19,1.42.18,1.79.16.16.14.33-.09.37-.26.04-.53.04-.8.03-.06,0-.16-.11-.16-.17-.02-.33,0-.67,0-1.01,0-.23-.02-.45-.03-.68-.04,0-.07,0-.11,0-.07.17-.16.34-.21.53-.1.34-.23.68.04,1.02.12.15,0,.3-.18.32-.16.03-.34.02-.5,0-.34-.03-.39-.09-.3-.44.02-.07,0-.15.02-.22.03-.15.04-.32.11-.45.21-.34.32-.7.31-1.1-.01-.22.03-.45.03-.67-.02-.32-.05-.63-.07-.95h-.08s-.03.06-.03.08c-.05.4-.11.8-.14,1.2-.02.24.01.48.04.72.04.26-.03.5-.21.65,0-.46-.02-.93,0-1.39Z"/>
    <path class="cls-1" d="M73.7,113.71c-.01.09-.03.18-.03.26,0,.32.03.63.02.95,0,.15-.06.29-.08.44-.01.08,0,.17,0,.3.22-.2.29-1.59.09-1.95Z"/>
    <path class="cls-1" d="M192.37,109.26c-.01-7.16-5.69-12.88-12.87-12.96-6.9-.08-13.07,5.93-13.13,12.79-.06,6.92,6.24,13.27,13.11,13.22,6.91-.05,12.89-6.11,12.88-13.05ZM179.25,101.09c.64.11,1.26.21,1.88.32.86.15,1.53.6,2.01,1.33.28.42.44.89.47,1.39.02.37,0,.74,0,1.12-.92-.93-1.83-1.84-2.76-2.79-.15.18-.27.3-.42.47.85.85,1.73,1.72,2.63,2.61-.56-.1-1.08-.16-1.6-.29-1.29-.33-2.2-1.5-2.22-2.84,0-.44,0-.88,0-1.33ZM176.82,109.51v1.63c-.29,0-.59,0-.89,0-.05,0-.12-.06-.13-.1-.13-.47-.13-.94,0-1.41.01-.04.08-.11.12-.11.31-.01.61,0,.9,0ZM176.07,108.96c.36-.61.85-1,1.46-1.21-.17.37-.35.75-.53,1.13-.02.04-.09.07-.14.07-.25,0-.5,0-.79,0ZM176.89,111.69s.09.05.11.08c.18.37.35.75.53,1.12-.61-.22-1.1-.61-1.46-1.21.3,0,.56,0,.82,0ZM177.42,111.13c-.11-.53-.11-1.07,0-1.61h2.02c.12.55.11,1.08,0,1.61h-2.02ZM177.56,108.95c.18-.51.45-.93.87-1.29.42.34.67.78.87,1.29h-1.73ZM179.32,107.75c.61.21,1.09.61,1.46,1.21-.31,0-.59,0-.86,0-.03,0-.06-.04-.07-.07-.18-.38-.35-.76-.53-1.13ZM179.29,111.7c-.18.5-.45.93-.86,1.28-.41-.35-.68-.77-.86-1.28h1.72ZM179.51,112.51c.12-.23.21-.47.32-.7.03-.05.08-.12.13-.12.26,0,.52,0,.82,0-.37.6-.85.99-1.52,1.23.1-.16.19-.28.25-.41ZM180.04,111.14v-1.63c.29,0,.61,0,.92,0,.04,0,.09.07.1.12.12.46.12.93,0,1.39-.01.05-.08.11-.12.11-.31,0-.61,0-.9,0ZM171.06,107.59c.38.09.73.18,1.05.26.24-.44.43-.89.69-1.28,1.4-2.12,3.4-3.12,5.93-3.08.11,0,.17.04.22.15.17.35.36.68.54,1.01-2.88-.35-4.98.78-6.27,3.46.21.06.38.11.55.15.17.05.35.08.5.12-.8.81-1.6,1.61-2.41,2.42-.26-1.05-.53-2.11-.81-3.22ZM184.71,112.78c-.68,1.73-1.84,3.02-3.54,3.78-1.34.6-2.73.73-4.16.44-2.87-.59-4.62-2.78-5.12-4.61.33-.1.66-.21.98-.31,1.16,2.78,3.2,4.21,6.22,3.91,2.16-.21,3.63-1.49,4.52-3.48-.2-.05-.37-.1-.54-.14-.17-.04-.34-.09-.48-.13.79-.79,1.59-1.59,2.4-2.39.26,1.03.52,2.09.8,3.19-.37-.09-.73-.17-1.09-.26ZM187,105.54c-.22.48-.57.83-1.07,1-.35.12-.72.2-1.11.25.49-.47.98-.95,1.48-1.43-.17-.16-.29-.27-.44-.43-.2.21-.4.43-.6.63-.3.31-.6.61-.91.91-.13.12-.18.24-.18.41.01.61,0,1.22,0,1.82v.23h-.54v-2.99h.53s.03-.08.04-.12c.19-1.05.82-1.71,1.83-2,.36-.1.74-.17,1.14-.26-.05.67.12,1.34-.17,1.97Z"/>
    <path class="cls-1" d="M141.62,118.73c7.88.13,12.84-4.82,13.02-12.91.16-7.09-5.84-12.9-12.93-12.87-7.11.03-12.89,5.83-12.89,12.94.36,7.94,4.91,12.71,12.8,12.83ZM142.94,99.2c.81,0,1.45.65,1.45,1.45s-.64,1.46-1.45,1.46-1.46-.65-1.46-1.46.65-1.46,1.46-1.46ZM137.36,99.04c.85,0,1.54.68,1.54,1.53,0,.85-.68,1.53-1.53,1.54-.85,0-1.54-.68-1.54-1.53,0-.85.68-1.54,1.54-1.54ZM135.75,106.06c-.11-.33-.04-.62.22-.86.13-.12.25-.23.38-.35.68-.66,1.28-1.39,1.69-2.27.61-1.32,2.41-1.6,3.44-.58.56.56.99,1.21,1.3,1.94.02.05.05.1.07.15.02,0,.04,0,.06,0,.17-.44.35-.88.5-1.33.19-.58.55-.95,1.15-1.03.6-.09,1.05.16,1.37.67.76,1.21,1.28,2.52,1.59,3.92.26,1.16.36,2.35.33,3.54,0,.27-.09.35-.36.35-.15,0-.31,0-.47,0,0,.09,0,.15.02.21.06.6.13,1.19.19,1.78.03.27-.07.38-.34.39-.23,0-.47,0-.7,0-.17,0-.27-.09-.31-.26-.03-.11-.05-.23-.08-.34-.07-.32-.14-.64-.23-1.01-.14.43-.26.81-.39,1.19-.07.24-.14.28-.39.28-.22,0-.44,0-.66,0-.38,0-.46-.11-.37-.48.14-.57.27-1.14.41-1.72-.28-.12-.32-.17-.26-.47.2-1.15.26-2.31.18-3.48-.02-.32-.07-.64-.11-1-.27.27-.51.5-.74.73-.02.02-.03.07-.03.11-.04.81-.09,1.61-.1,2.42-.02,1.18.01,2.37.29,3.53.06.22-.05.36-.28.37-.26,0-.52,0-.78,0-.42,0-.45-.03-.51-.43-.11-.71-.23-1.42-.34-2.16-.03.05-.05.07-.05.09-.18.77-.36,1.53-.54,2.3-.06.29-.15.37-.44.33-.25-.04-.5-.07-.75-.12-.25-.04-.34-.16-.28-.42.16-.67.32-1.34.46-2.01.24-1.1.48-2.19.35-3.33-.08-.63-.18-1.25-.46-1.83-.13-.25-.3-.48-.47-.75-.67.93-1.4,1.72-2.34,2.26.02.17.03.32.03.47,0,1.22,0,2.44,0,3.66,0,.54,0,1.08,0,1.61,0,.21-.1.33-.26.33-.17,0-.27-.12-.27-.34v-5.23c0-.06.02-.13,0-.17-.04-.07-.11-.12-.17-.18-.05.06-.13.11-.14.18-.03.1,0,.21-.01.31,0,.15-.1.24-.25.25-.15,0-.26-.07-.28-.22-.04-.27-.04-.54.12-.79.04-.05.05-.15.03-.21Z"/>
    <path class="cls-1" d="M130.95,9.65c-7.19.05-12.86,5.73-12.88,12.91-.03,7.03,5.89,12.92,12.97,12.91,7.05,0,12.9-5.91,12.87-12.99-.02-7.16-5.79-12.87-12.96-12.83ZM127.21,22.28s0,.04,0,.06c0,.05.01.09.02.14-.01-.06-.03-.13-.03-.2v-5.85c0-.47.27-.74.75-.74h2.28v-.5c0-.53.32-.84.84-.84.73,0,1.47,0,2.19,0,.52,0,.83.32.83.83v.51h2.27c.48,0,.74.26.74.74,0,1.95,0,3.9,0,5.85,0,.47-.26.73-.73.73h-8.44s0,0,0,0h0c-.45,0-.7-.24-.72-.67,0-.02,0-.04,0-.06h0ZM138.05,25.51c-.36.29-.74.55-1.14.79-1.21.71-2.43,1.41-3.66,2.07-1,.54-2.07.64-3.19.53-1.04-.1-2.1-.2-3.15-.24-.98-.04-1.96.15-2.9.44-.05.02-.11.03-.17.05-.49-1.28-.99-2.55-1.49-3.84.23-.08.45-.16.66-.24.85-.33,1.7-.63,2.53-1,.86-.39,1.67-.21,2.49.1.78.29,1.56.57,2.36.8.49.13,1.03.14,1.54.2.1.02.22.01.32.02.23.02.45.07.55.31.11.25.05.48-.1.7-.17.24-.42.33-.69.36-1.02.14-2.02.03-2.99-.34-.21-.08-.36-.05-.43.1-.07.16,0,.3.21.39.68.28,1.39.4,2.12.42.43.01.86-.03,1.29-.08.32-.04.62-.17.84-.42.1-.11.21-.25.23-.39.04-.23.18-.29.36-.37,1.08-.49,2.15-1,3.22-1.51.11-.05.22-.12.32-.17.43-.21.87-.13,1.1.2.23.33.15.84-.22,1.13Z"/>
    <path class="cls-1" d="M132.16,21.89c1.4,0,2.54-1.14,2.54-2.55,0-1.4-1.14-2.53-2.54-2.53-1.4,0-2.53,1.14-2.53,2.54s1.14,2.54,2.53,2.54ZM130.61,19.12c0-.26.02-.28.29-.28h.76c0-.29,0-.55,0-.82,0-.17.07-.24.24-.24.18,0,.37,0,.55,0,.17,0,.24.07.24.24,0,.27,0,.53,0,.82.28,0,.55,0,.82,0,.16,0,.23.06.23.22,0,.19,0,.38,0,.57.01.18-.07.24-.24.24-.26-.01-.52,0-.8,0v.75c0,.27-.02.29-.3.29-.17,0-.34,0-.52,0-.15.01-.22-.06-.22-.21,0-.26,0-.53,0-.83h-.75c-.27,0-.3-.02-.3-.29v-.45Z"/>
    <path class="cls-1" d="M133.64,15.11c-.01-.18-.14-.3-.33-.3-.77,0-1.53,0-2.3,0-.14,0-.28.07-.3.22-.02.22,0,.44,0,.66h2.93c0-.21,0-.39,0-.57Z"/>
    <path class="cls-1" d="M119.59,59.8c-.07,7.12,5.67,12.88,12.87,12.91,7.18.03,12.94-5.66,12.96-12.81.02-7.09-5.78-12.95-12.86-13-7.06-.04-12.9,5.77-12.97,12.9ZM138.82,65.63s-.1,0-.14,0h-10.34c-1.43,0-2.45-1.33-2.03-2.65.28-.91,1.06-1.48,2.01-1.48h10.41c.27,0,.43.14.44.36,0,.2-.13.36-.33.38-.07.01-.14.01-.21.01-3.4,0-6.81,0-10.21,0-.39,0-.74.09-1.03.35-.39.35-.53.89-.36,1.38.17.5.64.86,1.16.89.09,0,.18,0,.27,0h10.36c.21.02.35.17.36.37,0,.2-.14.36-.35.38ZM128.13,59.82v-2.69c.29.12.56.23.83.34.94.4,1.88.79,2.82,1.2.43.18.84.15,1.26-.03,1.13-.48,2.27-.96,3.4-1.44.05-.02.11-.04.17-.07,0,.07.01.12.01.16v2.51c0,.7-.43,1.13-1.12,1.13-2.09,0-4.17,0-6.26,0-.68,0-1.12-.43-1.12-1.12ZM138.3,64.52h-9.98c-.59,0-1.01-.39-1.02-.93,0-.51.39-.93.92-.97h10.17c-.26.64-.32,1.25-.09,1.9ZM139.02,60.95h-1.61c-.34,0-.49-.26-.33-.56.24-.43.49-.85.73-1.27.04-.08.07-.18.07-.27.01-.7.01-1.4,0-2.1,0-.11.02-.17.14-.21.16-.06.33-.14.51-.21v.18c0,.77,0,1.54,0,2.31,0,.11.03.22.09.32.23.42.48.83.72,1.25.17.31.03.56-.33.57ZM126.18,55.25c.93-.4,1.87-.79,2.8-1.19.98-.42,1.96-.83,2.95-1.24.14-.06.29-.08.43-.13.15.04.28.05.4.1,1.91.81,3.82,1.61,5.73,2.41.03.02.06.03.1.05.14.06.22.17.22.34,0,.15-.09.25-.23.31-.4.17-.8.34-1.2.51-1.48.62-2.95,1.23-4.42,1.87-.39.16-.75.18-1.15.01-1.87-.8-3.75-1.59-5.63-2.38-.15-.06-.25-.17-.25-.33,0-.16.09-.27.24-.34Z"/>
    <path class="cls-1" d="M75.74,64.79c.28.13.57.23.89.35.04-.22.11-.45.12-.68.07-1.08-.73-1.37-1.35-1.23-.41.09-.56.41-.41.8.15.35.41.61.75.76Z"/>
    <path class="cls-1" d="M62.65,67.91c-.08,7.12,5.61,12.94,12.76,13.04,7.16.1,12.94-5.55,13.03-12.74.09-7.17-5.53-12.93-12.73-13.04-7.12-.11-12.97,5.61-13.06,12.74ZM80.49,68.73c.09.13.16.29.18.44.03.24.01.48.01.73-.09.69.02,1.34.35,1.97.41.75.31,1.52,0,2.28-.51,1.2-1.48,1.82-2.7,2.11-1.47.35-2.87.12-4.19-.61-.75-.42-1.29-1.03-1.45-1.91-.13-.65.03-1.26.26-1.86.18-.47.34-.95.5-1.43.12-.36.19-.75.1-1.13-.03-.16-.12-.32-.22-.45-.07-.11-.13-.21-.07-.33.06-.13.18-.15.31-.15.98.03,1.93.2,2.87.44.51.13,1.01.3,1.52.39.77.13,1.52.02,2.15-.52.13-.11.29-.11.39.04ZM74.18,60.59c.53-.08,1.06-.14,1.6-.17.24-.02.49.04.74.09.48.11.77.48,1.03.86.64.93.78,1.97.59,3.06-.05.29-.11.56-.17.84-.03.09,0,.14.08.18.94.47,1.41,1.68,1.06,2.76-.16.49-.23.56-.75.52-.29-.02-.58-.06-.86-.15-.88-.26-1.76-.5-2.67-.62-.13-.01-.17-.07-.18-.19-.05-.43,0-.75.22-1.33-.6-.14-1.15-.35-1.67-.65-.51-.29-1.01-.61-1.46-.88.22-1.36.44-2.68.65-4,.59-.11,1.2-.23,1.81-.33ZM67.77,63.82c.17-1.08.35-2.15.52-3.21.04-.27.14-.33.4-.29.95.15,1.89.31,2.84.46.22.03.3.12.28.34-.08.53-.18,1.1-.27,1.66-.08.52-.17,1.04-.25,1.56-.05.3-.13.36-.43.32-.94-.15-1.88-.3-2.82-.45-.24-.04-.31-.14-.27-.38Z"/>
    <path class="cls-1" d="M78.18,71.76c.14,0,.26-.11.27-.24.02-.14-.08-.27-.22-.29-.03,0-.06,0-.09,0h-2.29c-.12,0-.23.09-.26.2-.04.17.08.34.26.34h.61c.14,0,.26.03.37.12.07.05.12.11.16.18h-.19c-.31,0-.63,0-.94,0-.19,0-.32.17-.27.34.04.12.14.2.27.2.36,0,.72,0,1.07,0h.04s0,0,0,.01c0,0,0,.01-.01.02-.06.11-.15.18-.26.23-.12.05-.24.05-.36.05-.17,0-.35,0-.52,0-.16,0-.28.17-.24.33.02.07.06.13.11.17.19.19.38.39.58.58.21.21.42.42.64.63.05.06.11.09.19.1.11,0,.21-.06.25-.16.05-.11.03-.23-.05-.31-.21-.21-.42-.42-.64-.63-.05-.05-.1-.11-.16-.16h.01s.02-.01.02-.01c.48-.03.89-.35,1.02-.8.01-.04.03-.05.06-.05.19,0,.38,0,.57,0,.2,0,.33-.23.23-.41-.06-.1-.14-.14-.25-.14-.18,0-.37,0-.55,0-.01,0-.04,0-.04-.02-.04-.09-.07-.18-.11-.29h.73Z"/>
    <path class="cls-1" d="M182.98,56.94c.04,7.13,5.82,12.86,12.96,12.86,7.19,0,12.87-5.71,12.84-12.9-.04-7.23-5.68-12.88-12.88-12.89-7.07,0-12.96,5.88-12.92,12.93ZM193.83,64.45c-.4,0-.78-.03-.99-.47h1.66c-.14.29-.34.46-.67.47ZM194.76,63.51h-2.19v-.37h2.19v.37ZM192.56,62.69v-.36h2.19v.36h-2.19ZM202.56,51.01c.44.76.86,1.49,1.31,2.27-.22,0-.39,0-.56,0-.23,0-.29.07-.29.3v2.79h-.79c-.15,0-.12-.11-.12-.19v-2.48c0-.38-.03-.41-.41-.41h-.44c.44-.77.86-1.5,1.31-2.27ZM200.25,56.05c.38.65.47,1.35.21,2.07-.06.14-.03.26.04.39.21.34.41.69.61,1.04.15.26.12.33-.14.47-.41.22-.41.22-.34.68,0,.02.01.04,0,.06-.06.23-.13.46-.18.69-.03.12-.03.26-.03.39,0,.06.05.11.07.17.17.4.1.61-.33.71-.49.11-1.01.14-1.51.18-.32.03-.35.04-.35.37v1.07h-3.52c.09-.12.19-.24.27-.37.06-.1.11-.22.11-.34.02-.43.02-.85,0-1.28-.01-.36.1-.67.31-.95.28-.39.59-.77.9-1.13,1.27-1.52,1.09-4.09-.73-5.34-.03-.01-.05-.04-.07-.06,0-.02,0-.03.01-.05h.84c.25,0,.32-.07.32-.33,0-.15,0-.3,0-.51.35.06.69.1,1.02.19,1.05.32,1.92.91,2.48,1.88ZM195.87,49.03c.44.76.86,1.49,1.31,2.27h-.55c-.25,0-.31.06-.31.31v2.77h-.9c0-.08-.01-.15-.01-.23v-2.51c0-.29-.05-.34-.33-.34h-.52c.44-.77.86-1.5,1.31-2.27ZM191.67,55.46c1.05-.84,2.23-.98,3.43-.35,1.19.62,1.71,1.66,1.68,3-.03.89-.45,1.6-1.01,2.25-.39.44-.77.87-.95,1.44-.02.04-.12.08-.18.08-.33.01-.65,0-.97,0s-.66,0-.99,0c-.06,0-.16-.05-.17-.09-.17-.51-.5-.92-.84-1.31-.43-.49-.84-.99-1-1.64-.32-1.25-.02-2.54,1.02-3.37ZM189.19,51.01c.44.76.86,1.49,1.31,2.27h-.54c-.25,0-.32.07-.32.32v2.75h-.9v-2.72c0-.3-.05-.35-.35-.35-.14,0-.27,0-.42,0-.01,0-.02,0-.07-.02.43-.74.85-1.47,1.29-2.24Z"/>
    <path class="cls-1" d="M193.64,58.95c.59,0,1.04-.44,1.05-1.02.02-.59-.44-1.06-1.03-1.07-.57,0-1.05.45-1.06,1.02-.01.59.45,1.06,1.03,1.06ZM193.67,57.29c.34.01.61.29.61.63,0,.34-.29.61-.63.61-.34,0-.61-.29-.61-.63,0-.34.29-.62.63-.61Z"/>
    <path class="cls-1" d="M191.72,58.57s.11.05.13.1c.02.05,0,.12-.02.16-.04.06-.1.11-.16.16-.17.18-.17.39,0,.57.05.06.12.12.17.18.39.39.47.39.88.03.01-.01.02-.03.03-.03.05-.01.12-.03.16-.01.04.02.09.08.09.13.02.08,0,.17.01.25.01.24.14.37.38.38.13,0,.25,0,.37,0,.44,0,.53-.1.54-.53,0-.08.05-.18.11-.23.04-.02.16.03.21.08.32.31.47.31.78-.01.04-.03.07-.06.1-.1.36-.35.36-.46,0-.83-.01-.02-.03-.03-.04-.04-.08-.11-.02-.24.11-.26.08,0,.15,0,.23,0,.26-.01.4-.15.41-.42,0-.11,0-.22,0-.33,0-.45-.1-.54-.54-.56-.08,0-.18-.05-.22-.12-.02-.04.04-.15.08-.22.08-.12.17-.23.25-.33-.04-.11-.04-.19-.08-.24-.16-.17-.32-.35-.5-.5-.13-.11-.29-.09-.44.02-.07.05-.12.13-.2.18-.05.03-.14.06-.17.04-.05-.03-.09-.11-.11-.17-.02-.06,0-.12,0-.18-.01-.27-.14-.41-.41-.41-.11,0-.22,0-.33,0-.45,0-.54.09-.55.54,0,.07-.05.2-.1.21-.07.02-.16-.04-.24-.08-.11-.06-.2-.18-.32-.21-.28-.07-.88.53-.8.82.04.13.17.24.25.36.03.05.05.13.04.17-.02.05-.1.09-.15.11-.08.02-.16,0-.25,0-.22.01-.35.15-.36.37,0,.07,0,.14,0,.21q0,.63.64.72ZM191.52,57.69c.31,0,.59,0,.74-.37.14-.37-.03-.56-.29-.78.12-.1.22-.18.34-.29.2.2.38.42.76.26.37-.16.38-.43.37-.74h.42c0,.31,0,.58.37.74.38.16.56-.04.77-.26.11.11.21.19.32.3-.24.22-.43.42-.27.79.15.37.42.36.74.36v.42c-.29.03-.59-.03-.74.36-.14.37,0,.58.26.77-.11.11-.21.2-.32.31-.2-.2-.38-.42-.76-.25-.38.16-.39.42-.38.74h-.43c0-.3.02-.58-.36-.73-.38-.17-.56.03-.79.27-.1-.11-.18-.21-.29-.33.21-.2.41-.39.25-.76-.15-.36-.41-.37-.73-.36v-.43Z"/>
    <path class="cls-1" d="M42.39,96.59c.47-.3.96-.51,1.51-.62.22-.04.36-.24.36-.46,0-.28-.25-.49-.53-.45-.67.11-1.28.36-1.84.74-.22.15-.26.42-.13.64.14.21.42.28.63.14Z"/>
    <path class="cls-1" d="M43.7,98.04c-.66.12-1.25.41-1.81.77-.17.11-.22.33-.15.52.06.19.24.31.52.31.06-.03.2-.08.32-.15.41-.23.83-.43,1.3-.53.27-.06.43-.28.38-.54-.04-.25-.28-.42-.55-.37Z"/>
    <path class="cls-1" d="M27.26,98.12c-.08,7.13,5.64,12.94,12.8,12.99,7.18.05,12.95-5.61,13.02-12.77.06-7.14-5.68-12.97-12.8-13.01-7.18-.04-12.94,5.62-13.02,12.79ZM46.59,101.29v-6.84c.36,0,.69,0,1.02,0,.17,0,.26.12.28.28.01.05,0,.11,0,.16v7.79c0,.35-.07.43-.41.45-.94.07-1.88.1-2.81.21-.89.1-1.77.27-2.66.41-.05,0-.11.02-.16.03-.01-.02-.02-.04-.03-.05.33-.21.65-.44,1-.63,1.02-.59,2.1-.98,3.25-1.2.39-.07.51-.22.51-.61ZM40.6,94.32c.65-.71,1.44-1.21,2.31-1.6.73-.33,1.49-.57,2.28-.72.3-.05.45.06.45.36,0,2.84,0,5.69,0,8.54,0,.11-.03.16-.14.18-1.46.33-2.81.91-4.03,1.78-.36.26-.69.54-1.06.83v-.23c0-2.9,0-5.8,0-8.7,0-.18.06-.32.18-.44ZM34.25,92.4c0-.35.14-.46.49-.4,1.35.27,2.61.75,3.73,1.58.34.25.63.57.94.86.05.04.07.13.07.19,0,3,0,5.99,0,8.99,0,.02,0,.03,0,.04-.5-.36-.97-.74-1.47-1.08-1.1-.73-2.3-1.2-3.58-1.5-.14-.03-.18-.08-.18-.23v-8.46ZM32.01,94.86c0-.26.12-.37.37-.37h.93v6.78c0,.42.12.56.53.64,1.5.3,2.89.87,4.13,1.77.03.02.06.05.08.07,0,0,0,.01,0,.04-.27-.05-.53-.1-.79-.15-1.12-.22-2.25-.33-3.38-.39-.51-.03-1.02-.06-1.53-.1-.24-.02-.34-.12-.34-.37v-7.91Z"/>
    <path class="cls-1" d="M35.98,98.94c.53.12,1.02.35,1.49.62.26.15.54.08.67-.15.14-.24.06-.51-.21-.65-.31-.17-.61-.34-.93-.47-.27-.12-.56-.18-.74-.24-.34-.02-.55.14-.59.36-.05.24.08.48.32.54Z"/>
    <path class="cls-1" d="M36.12,96c.48.1.93.29,1.34.55.26.17.54.13.7-.11.15-.23.08-.5-.18-.66-.41-.27-.85-.47-1.32-.61-.17-.05-.35-.08-.48-.12-.25,0-.44.13-.5.32-.06.19,0,.4.17.51.08.06.18.09.28.11Z"/>
    <path class="cls-1" d="M146.97,37.68c.04,7.21,5.71,12.78,12.98,12.74,7.12-.04,12.92-5.9,12.83-12.97-.09-7.13-5.92-12.83-13.07-12.77-7.18.05-12.78,5.77-12.74,13.01ZM157.45,32.09c.55-.29,1.15-.44,1.77-.46.1,0,.2.03.29.08.21.13.44.24.62.41.24.21.46.44.65.7.17.24-.09.72-.39.74-.07,0-.16-.07-.21-.13-.07-.08-.11-.19-.17-.27-.12-.16-.28-.16-.42-.03-.27.26-.28.76-.04,1.04.15.17.3.34.45.52.05.06.09.13.12.2.12.27.07.48-.21.54-.4.08-.46.35-.48.68-.01.17-.01.34-.04.5-.08.35-.29.46-.63.36-.08-.03-.17-.06-.26-.08-.22-.05-.39-.01-.52.18-.08.14-.22.21-.39.2-.2,0-.27-.11-.17-.28.12-.19.25-.36.4-.53.15-.16.31-.31.47-.46.25-.24.28-.38.11-.68-.09-.17-.15-.34-.11-.55.04-.22-.04-.41-.24-.55-.1-.08-.18-.21-.21-.33-.05-.19-.15-.29-.34-.3-.12,0-.25,0-.36.03-.45.14-.78-.05-1.12-.35.39-.51.86-.9,1.42-1.19ZM161.13,32.54s-.01-.03-.02-.05c.24-.03.48-.05.71-.07.04,0,.1.04.14.07.94.73,1.48,1.69,1.64,2.86.06.44.04.87-.06,1.32-.43-.22-.86-.43-1.35-.26-.51.17-.68.62-.83,1.09-.44-.15-.78.03-1.11.28-.36.29-.42.57-.22,1.05-.48.27-.61.71-.43,1.3-.52-.07-1-.13-1.5-.2.15-.18.29-.3.37-.45.08-.15.15-.33.16-.51.02-.35-.26-.62-.66-.66-.2-.02-.4,0-.56,0-.13-.21-.24-.38-.35-.56-.07-.11-.13-.21-.07-.3.18.08.34.21.52.23.17.02.36-.05.54-.09.04-.01.1-.04.12-.08.15-.24.34-.2.58-.13.58.18,1.07-.22,1.13-.88,0-.05,0-.11,0-.16,0-.26.02-.47.34-.6.43-.16.55-.65.31-1.08-.14-.25-.35-.47-.53-.71-.06-.07-.12-.15-.18-.22,0-.01.03-.02.04-.03.04.04.09.08.13.12.17.15.37.19.6.12.6-.2.86-.87.57-1.42ZM160.41,38.6c-.11-.18-.09-.29.07-.43.09-.08.18-.14.28-.2.19-.12.37-.12.55.02.18.14.25.12.35-.09.07-.16.13-.33.18-.49.23-.61.57-.76,1.16-.51.46.19.47.19.27.64-.59,1.3-1.58,2.11-2.95,2.45-.31.07-.37.01-.42-.34.07-.12.14-.24.23-.35.04-.05.09-.07.15-.1.28-.21.31-.29.13-.6ZM156.73,38.06c.09.12.15.27.18.42.03.18.15.25.31.26.16.02.33,0,.49,0,.18,0,.39-.03.47.17.08.19-.05.33-.17.46-.32.35-.37.36-.76.13-.92-.55-1.55-1.35-1.89-2.37-.02-.06-.03-.12-.05-.18.05-.02.08-.04.11-.04.27.01.35-.16.4-.38.04-.15.06-.31.1-.46.04-.16.12-.3.29-.34.18-.03.32.05.43.18.17.21.18.46.12.71-.05.22-.11.43-.18.64-.1.29-.04.54.15.77ZM155.78,33.64c.48.42,1,.61,1.63.36.05.27.18.45.38.58.04.03.07.12.06.17-.06.27.02.51.15.75.03.04.03.14,0,.17-.25.25-.52.48-.77.72,0-.02-.01-.08-.02-.14-.03-.27-.14-.51-.35-.69-.5-.44-1.17-.25-1.36.38-.04.14-.07.28-.09.43-.02.12-.09.16-.22.14-.15-1.02.05-1.96.58-2.86ZM154.45,37.53c.12-.05.23-.02.28.11.08.16.14.32.22.51h-.48c-.04-.1-.09-.22-.13-.34-.04-.12-.02-.22.11-.27ZM154.73,42.37c-.33-.23-.66-.47-.88-.82-.16-.26-.32-.53-.43-.82-.51-1.33-1-2.66-1.5-4-.06-.17-.11-.35-.15-.52-.07-.32.21-.57.53-.48.23.07.4.24.52.43.15.23.27.47.39.72.24.48.47.95.7,1.43.03.07.04.18.01.26-.07.22-.09.44.01.64.16.32.34.66.56.94.31.37.67.71,1.02,1.06.1.1.22.13.34.03.1-.09.08-.22-.04-.35-.36-.38-.74-.75-1.08-1.14-.16-.18-.28-.41-.37-.63-.12-.29.06-.55.37-.53.16,0,.35.06.46.16.78.66,1.54,1.33,2.3,2.02.34.31.52.71.59,1.15.07.54.13,1.09.2,1.66h-.82c-.5,0-1,0-1.5,0-.06,0-.15-.03-.18-.07-.24-.48-.63-.82-1.06-1.12ZM155.41,45.28c0-.32-.02-.63,0-.94.02-.2.18-.32.39-.33.93,0,1.86,0,2.79,0,.21,0,.38.16.39.36.02.29,0,.58,0,.9h-3.57ZM158.41,41.17s-.1-.04-.13-.09c-.09-.13-.17-.27-.27-.45.92.25,1.82.25,2.75,0-.1.17-.18.31-.27.44-.03.04-.09.08-.14.1-.65.13-1.3.13-1.94,0ZM159.8,45.28c0-.32-.02-.63,0-.94.02-.18.19-.32.39-.32.93,0,1.86,0,2.79,0,.21,0,.37.15.39.36.02.29,0,.59,0,.9h-3.57ZM166.99,36.21c-.11.4-.24.8-.39,1.19-.4,1.08-.81,2.15-1.2,3.22-.27.74-.71,1.33-1.38,1.77-.44.29-.81.63-1.05,1.11-.02.04-.07.07-.11.07-.79,0-1.59,0-2.39,0,.07-.61.13-1.19.23-1.76.09-.55.42-.96.84-1.31.62-.52,1.22-1.07,1.83-1.59.13-.12.27-.23.43-.29.12-.04.29-.03.41.01.22.08.3.25.2.45-.17.33-.36.64-.59.92-.26.31-.56.58-.85.87-.14.14-.16.25-.07.36.1.11.23.1.37-.04.53-.5,1.06-1,1.41-1.64.18-.33.29-.66.12-1.04-.02-.04,0-.12.03-.16.29-.6.58-1.21.89-1.8.12-.22.28-.43.44-.62.07-.09.2-.15.3-.18.31-.1.61.16.52.47ZM162.17,31.07c.08.14.17.25.31.34.61.42,1.11.94,1.5,1.58.02.03.04.06.11.08-.03-.13-.03-.26-.07-.39-.4-1.34.69-2.6,2.07-2.41.04,0,.08.02.14.03-.32.42-.33.92-.44,1.38-.13.54-.34,1.03-.85,1.33-.06.03-.12.06-.2.1-.03-.52.07-.99.2-1.46-.25.34-.37.72-.42,1.12-.08.63.05,1.24.17,1.85.23,1.13.15,2.22-.28,3.29-.03.08-.06.15-.1.24-.1-.01-.17-.02-.24-.02-.07,0-.14,0-.21,0,1.43-2.77-.1-5.98-2.67-6.89.14.09.27.19.41.29.14.11.26.22.42.36-.43.17-.84.19-1.23.03-.29-.13-.56-.3-.84-.46-.33-.2-.63-.45-1.05-.5.03-.05.05-.09.07-.13.83-1.14,2.55-1.01,3.22.24Z"/>
    <path class="cls-1" d="M37.6,130.27c1.27,0,2.31-1.04,2.3-2.31,0-1.27-1.03-2.29-2.3-2.29s-2.3,1.03-2.3,2.3,1.04,2.3,2.3,2.3ZM36.2,127.76c0-.23.02-.25.26-.25h.69c0-.26,0-.5,0-.74,0-.16.06-.22.22-.22.17,0,.33,0,.5,0,.15,0,.22.06.22.22,0,.24,0,.48,0,.74.26,0,.5,0,.74,0,.15,0,.21.05.2.2,0,.17,0,.35,0,.52,0,.16-.07.22-.22.21-.23,0-.47,0-.73,0v.69c0,.24-.02.26-.27.26-.15,0-.31,0-.46,0-.14,0-.2-.06-.2-.19,0-.24,0-.48,0-.75h-.68c-.25,0-.27-.02-.27-.26,0-.14,0-.27,0-.41Z"/>
    <path class="cls-1" d="M38.94,124.13c0-.16-.12-.27-.29-.28h-2.08c-.13,0-.26.06-.27.2-.02.19,0,.4,0,.59h2.66c0-.18,0-.35,0-.51Z"/>
    <path class="cls-1" d="M33.51,131.24c-.25-.08-.39-.29-.39-.6,0,.31.14.52.39.6Z"/>
    <path class="cls-1" d="M47.57,130.72c.04-5.17-5.08-10.79-9.92-10.9-6.82-.16-12.24,4.65-12.31,10.91-.06,5.91,5.06,11,11.11,11.05,5.97.05,11.07-5.02,11.11-11.07ZM33.11,128.83c0-1.17,0-2.34,0-3.51,0-.43.24-.67.67-.67.34,0,.69,0,1.03,0h1.03v-.45c0-.48.29-.76.77-.76h1.98c.47,0,.75.29.75.76,0,.14,0,.29,0,.45h.2c.62,0,1.24,0,1.86,0,.43,0,.67.24.67.67v5.3c0,.43-.24.66-.66.66h-7.65s0,0,0,0h0c-.43,0-.66-.24-.66-.66v-.51c0,.17,0,.34,0,.52v-.52c0-.39,0-.76,0-1.15v-.13ZM42.93,133.55c-.33.26-.67.5-1.03.71-1.1.64-2.2,1.27-3.32,1.88-.9.49-1.88.58-2.89.48-.95-.1-1.9-.18-2.85-.22-.9-.03-1.78.13-2.64.4-.05.02-.1.03-.16.04-.45-1.16-.9-2.31-1.35-3.48.21-.07.41-.14.61-.22.76-.3,1.54-.58,2.29-.91.78-.35,1.51-.18,2.26.09.71.26,1.41.52,2.14.72.45.12.93.12,1.4.18.1.01.2,0,.3.01.21.01.41.06.49.28.09.22.05.44-.1.63-.15.21-.38.3-.63.33-.93.13-1.83.03-2.71-.3-.19-.07-.32-.05-.38.09-.06.14,0,.27.18.35.62.26,1.27.36,1.92.39.39.01.78-.02,1.17-.07.29-.04.56-.16.76-.38.09-.1.18-.22.2-.35.04-.21.17-.26.33-.34.97-.45,1.95-.91,2.92-1.37.1-.05.19-.11.29-.15.39-.19.78-.12,1,.18.2.29.13.76-.2,1.02Z"/>
    <path class="cls-1" d="M37.23,53.3c.15,5.42,4.51,9.66,9.97,9.66,5.57.01,10-4.43,9.96-9.98-.04-5.52-4.56-9.92-10.11-9.85-5.51.07-9.97,4.69-9.82,10.17ZM42.85,52.42h2.94s.04,0,.04,0c-.18.19-.35.38-.53.56-.03.02-.05.04-.08.05-.46.24-.81.6-1.06,1.05-.02.04-.07.08-.1.08-.28,0-.57,0-.88,0v-1.05h-.34c-.21-.01-.37-.17-.36-.36s.16-.34.37-.34ZM44.58,58.4h-.69v-1.41h.69v1.41ZM47.39,58.4h-.69v-2.81h.69v2.81ZM50.2,58.4h-.69v-1.4h.69v1.4ZM53,55.38c-.06.13-.17.2-.32.2h-.35v2.41c0,.29-.13.43-.42.43h-1v-1.72c0-.28-.14-.41-.41-.41h-1.31c-.26,0-.4.13-.4.4v1.72h-.7v-3.08c0-.33-.13-.45-.45-.45h-1.24c-.28,0-.42.14-.42.42v3.11h-.7v-1.7c0-.29-.13-.42-.42-.42h-1.29c-.26,0-.4.14-.4.41,0,.56,0,1.13,0,1.71-.04,0-.07,0-.11.01h-.93c-.25,0-.38-.14-.38-.39v-2.45h-.32c-.23,0-.39-.14-.39-.35,0-.2.16-.36.4-.36h3.04c.11,0,.14-.03.17-.13.16-.53.51-.91,1.02-1.14.06-.03.12-.08.15-.14.55-.93,1.89-.93,2.44,0,.03.05.07.09.12.12.56.24.91.65,1.07,1.23,0,.02.02.03.03.06h3.16c.3,0,.49.26.36.51ZM51.32,52.43c.17.04.3.19.29.36-.01.17-.15.32-.34.33-.12,0-.23,0-.36,0v1.05c-.31,0-.6,0-.89,0-.03,0-.07-.04-.09-.07-.25-.46-.61-.82-1.07-1.07-.02,0-.04-.02-.06-.04-.18-.19-.36-.39-.54-.58h2.95s.08,0,.12.01ZM50.91,51.01c0,.22-.17.35-.47.35h-.24v.34h-6.31v-.34h-.34c-.21,0-.37-.16-.37-.35,0-.19.16-.34.36-.34.25,0,.5,0,.74,0h6.16c.29,0,.46.13.46.35ZM50.21,49.26c0,.2-.16.34-.39.35h-.32v.34h-4.9v-.34h-.32c-.23,0-.39-.15-.39-.35,0-.21.16-.36.4-.36h5.53c.24,0,.4.15.4.36ZM47.4,46.81v.31h.71c0-.11,0-.22,0-.33,0-.22.15-.37.35-.37s.34.15.35.37v.33h.33c.22,0,.36.14.37.34,0,.21-.14.35-.36.36-.11,0-.22,0-.34,0v.36h-3.51v-.36h-.32c-.23,0-.39-.15-.39-.35s.15-.35.39-.35h.32v-.34c0-.22.15-.37.35-.37.2,0,.34.16.34.38,0,.1,0,.21,0,.32h.71v-.31c0-.23.15-.39.35-.39s.35.16.35.39Z"/>
    <path class="cls-1" d="M100.77,107.19c5.11-.08,9.12-4.2,9.09-9.35-.03-5.05-4.22-9.21-9.28-9.2-5.16.01-9.43,4.4-9.28,9.54.15,5.08,4.36,9.08,9.47,9.01ZM100.25,103.78v.24h-2.82c0-.23,0-.45,0-.66.01-.19.15-.31.37-.31.32,0,.64,0,.96,0,.25,0,.51.01.76,0,.75-.02.74.08.73.73ZM98.7,98.77c.04-.46.23-.84.55-1.15.32-.32.71-.48,1.19-.53-.56-.16-.84-.53-.78-.99.07-.46.44-.78.89-.77.45,0,.81.33.86.8.06.44-.24.82-.75.96,1.03.21,1.76.94,1.7,1.68h-3.66ZM103.63,104.02h-2.81c0-.24-.01-.47,0-.7.01-.16.14-.26.32-.27.72,0,1.43,0,2.16,0,.21,0,.33.15.33.36v.61ZM106.12,96.72c.06-.15.14-.3.25-.42.14-.15.33-.09.35.12.03.18.03.38-.02.57-.18.76-.37,1.52-.59,2.28-.17.62-.56,1.1-1.04,1.52-.43.39-.87.77-1.28,1.18-.18.18-.29.43-.43.64-.03.04-.07.09-.11.09-.69,0-1.39,0-2.08,0,0,0-.02-.01-.04-.02-.01-.17-.04-.35-.03-.53.01-.34.02-.68.07-1.01.07-.51.38-.87.84-1.08.25-.12.51-.22.76-.33.55-.23,1.04-.56,1.47-.97.04-.04.09-.09.15-.12.14-.09.32-.06.42.04.11.11.13.26.04.41-.17.31-.42.53-.7.73-.18.13-.38.24-.58.35-.13.07-.19.15-.14.25.07.13.17.12.28.06.58-.27,1.07-.65,1.42-1.19.38-.58.6-1.25.79-1.91.06-.22.11-.45.18-.67ZM102.91,93.87c.1-.35.43-.59.78-.58.36.02.67.29.73.63.08.42-.12.73-.61.94.4.07.74.21,1,.48.27.28.43.61.47,1h-3.26c.03-.39.19-.72.46-1,.27-.27.6-.42,1-.49-.53-.29-.7-.59-.58-1ZM99.42,91.65c.35-.14.81-.02,1.02.26.03.04.06.07.1.13.17-.29.43-.42.75-.44.6-.02,1,.46.86,1.04-.08.34-.25.65-.48.91-.32.37-.67.72-1.01,1.07-.07.07-.15.1-.22.02-.5-.48-1.03-.95-1.35-1.59-.09-.17-.15-.36-.17-.56-.05-.38.15-.7.51-.84ZM97.24,94.86c-.25-.08-.44-.22-.54-.43-.11-.22-.11-.45-.02-.67.14-.31.48-.51.81-.46.36.05.63.32.68.66.05.41-.14.7-.61.9.91.24,1.45.8,1.45,1.49h-3.23c-.05-.64.56-1.28,1.46-1.49ZM94.34,96.42c.05-.21.23-.27.37-.12.11.12.19.27.24.43.11.31.18.63.27.95.17.58.38,1.13.71,1.63.34.51.81.88,1.35,1.15.03.02.06.02.09.04.11.04.2.02.25-.09.04-.1-.02-.18-.11-.22-.38-.16-.69-.39-.97-.68-.12-.13-.23-.27-.33-.42-.1-.15-.07-.31.05-.42.11-.1.28-.11.42-.03.04.02.07.05.1.08.5.51,1.1.86,1.76,1.12.18.07.36.15.54.24.45.22.72.57.81,1.06.1.52.08,1.03.04,1.57h-2.11s-.09-.03-.1-.06c-.24-.56-.67-.95-1.12-1.33-.26-.23-.52-.45-.78-.69-.39-.35-.67-.77-.84-1.26-.29-.86-.53-1.74-.66-2.65,0-.1,0-.21.02-.31Z"/>
    <path class="cls-1" d="M168.93,85.48c.07,4.97,4.1,8.94,9.09,8.94,5.13,0,9.17-4.1,9.11-9.24-.07-4.97-4.08-8.93-9.07-8.95-5.08-.02-9.18,4.14-9.12,9.24Z"/>
    <path class="cls-1" d="M110.76,70.8c-4.79.06-8.57,3.87-8.52,8.61.04,4.71,3.95,8.52,8.69,8.49,4.76-.04,8.54-3.89,8.49-8.66-.04-4.78-3.86-8.5-8.66-8.44Z"/>
    <path class="cls-1" d="M117.03,37.56c-4.08.16-7.28,3.54-7.2,7.59.08,4.2,3.55,7.46,7.79,7.31,4.07-.14,7.26-3.51,7.18-7.58-.08-4.21-3.55-7.48-7.77-7.32Z"/>
    <path class="cls-1" d="M15.37,127.81c3.22.08,6.27-2.99,6.33-6.39.07-3.42-2.73-6.46-6.1-6.64-3.35-.17-6.43,3.09-6.54,6.94-.08,2.98,3.04,5.99,6.31,6.08Z"/>
    <path class="cls-1" d="M206.95,137.11c.03-3.4-2.43-5.95-5.74-5.93-4.27.02-6.67,2.17-6.77,6.07-.09,3.52,2.68,6.42,6.18,6.47,3.6.05,6.3-2.76,6.33-6.6Z"/>
    <path class="cls-1" d="M119.13,111.54c.8-2.99-.82-6.19-3.72-7.37-2.87-1.16-6.39,0-7.79,2.72-1.26,2.44-1.19,4.91.39,7.24,1.5.69,2.95,1.72,4.52,1.99,3.41.61,5.67-1.13,6.6-4.6Z"/>
    <polygon class="cls-1" points="107.96 114.12 107.97 114.12 107.97 114.12 107.96 114.12"/>
    <path class="cls-1" d="M108.03,114.19s-.02-.03-.03-.05c0,0-.02,0-.03-.01l.06.06s0,0,0,0Z"/>
    <path class="cls-1" d="M58.2,30.37c-3.52.03-6.3,2.89-6.21,6.39.09,3.37,2.81,6.04,6.21,6.08,3.52.04,6.37-2.74,6.39-6.24.02-3.46-2.86-6.26-6.39-6.23Z"/>
    <path class="cls-1" d="M180.04,26.18c-3.46.06-6.31,3.04-6.21,6.48.1,3.34,2.9,6.08,6.24,6.1,3.5.03,6.38-2.81,6.36-6.29-.02-3.47-2.93-6.34-6.39-6.29Z"/>
    <path class="cls-1" d="M47.46,69.34c-3.39.08-6.01,2.78-6.03,6.22-.03,3.51,2.81,6.36,6.29,6.33,3.44-.03,6.31-2.99,6.24-6.42-.07-3.47-2.98-6.22-6.5-6.13Z"/>
    <path class="cls-1" d="M182.61,61.8c.01-3.49-2.83-6.31-6.33-6.29-3.51.03-6.3,2.88-6.24,6.39.05,3.36,2.77,6.04,6.18,6.12,3.5.08,6.38-2.72,6.39-6.21Z"/>
    <path class="cls-1" d="M200.16,109.85c3.48-.05,6.31-2.97,6.23-6.43-.08-3.47-3.03-6.21-6.53-6.09-3.35.11-6.08,2.91-6.07,6.23,0,3.46,2.91,6.33,6.36,6.29Z"/>
    <path class="cls-1" d="M26.55,153.38c3.5-.05,6.26-2.93,6.18-6.45-.08-3.5-3.01-6.25-6.49-6.11-3.39.14-6.02,2.88-6.01,6.27,0,3.53,2.83,6.33,6.33,6.28Z"/>
    <path class="cls-1" d="M152.72,67.74c-.04,3.31,2.67,6.16,6.01,6.33,3.44.17,6.47-2.62,6.57-6.07.1-3.44-2.72-6.43-6.16-6.5-3.44-.07-6.38,2.78-6.42,6.24Z"/>
    <path class="cls-1" d="M131.02,91.48c-.02-3.49-2.89-6.3-6.39-6.25-3.47.05-6.31,2.99-6.23,6.43.08,3.32,2.88,6.03,6.24,6.05,3.55.03,6.39-2.76,6.38-6.23Z"/>
    <path class="cls-1" d="M57.67,89.67c.1,3.35,2.86,6.01,6.26,6.03,3.46.02,6.38-2.9,6.33-6.31-.05-3.48-2.97-6.28-6.45-6.19-3.54.09-6.24,2.93-6.14,6.47Z"/>
    <path class="cls-1" d="M86.93,95.35c.04-3.37-2.61-6.18-5.96-6.32-3.45-.15-6.42,2.61-6.56,6.08-.13,3.46,2.66,6.39,6.15,6.46,3.52.07,6.33-2.68,6.37-6.22Z"/>
    <path class="cls-1" d="M207.79,66.72c.12,3.37,2.88,6,6.27,5.98,3.55-.03,6.33-2.84,6.27-6.33-.06-3.48-2.98-6.27-6.47-6.17-3.5.1-6.2,2.99-6.08,6.53Z"/>
    <path class="cls-1" d="M228.65,100.77c-3.46.09-6.08,2.73-6.08,6.12,0,3.28,2.92,6.41,5.96,6.4,3.66-.02,6.65-2.95,6.6-6.48-.05-3.59-2.77-6.13-6.48-6.04Z"/>
    <path class="cls-1" d="M102.59,60.36c3.51.06,6.37-2.73,6.38-6.23.01-3.53-2.79-6.31-6.32-6.29-3.35.02-6.14,2.72-6.23,6.06-.11,3.46,2.71,6.4,6.17,6.46Z"/>
    <path class="cls-1" d="M211.59,153.9c3.55-.08,6.2-2.91,6.08-6.48-.12-3.38-2.86-6.05-6.23-6.05-3.45-.01-6.32,2.9-6.29,6.35.04,3.49,2.92,6.26,6.43,6.18Z"/>
    <path class="cls-1" d="M99.51,23.78c.09,3.4,2.77,6.01,6.21,6.04,3.55.05,6.33-2.71,6.3-6.25-.03-3.51-2.89-6.33-6.34-6.25-3.51.09-6.26,2.97-6.17,6.46Z"/>
    <path class="cls-1" d="M88.83,44.67c-3.51-.13-6.43,2.59-6.54,6.08-.11,3.51,2.63,6.36,6.17,6.4,3.58.04,6.41-2.7,6.4-6.18-.02-3.37-2.69-6.17-6.02-6.29Z"/>
    <path class="cls-1" d="M82.58,36.92c.12,3.39,2.86,6.02,6.26,6.02s6.37-2.85,6.32-6.3c-.06-3.49-2.92-6.23-6.45-6.18-3.49.05-6.26,2.97-6.13,6.46Z"/>
    <path class="cls-1" d="M99.77,80.66c.05-3.44-2.83-6.34-6.3-6.34s-6.12,2.62-6.24,6.02c-.12,3.55,2.56,6.4,6.08,6.48,3.49.08,6.4-2.71,6.45-6.16Z"/>
    <path class="cls-1" d="M26.83,75.32c-.05,3.48,2.79,6.28,6.32,6.26,3.5-.02,6.37-2.91,6.29-6.32-.09-3.45-3.02-6.22-6.51-6.15-3.32.06-6.05,2.84-6.09,6.21Z"/>
    <path class="cls-1" d="M168.56,97.75c.07-3.51-2.68-6.3-6.23-6.33-3.55-.03-6.3,2.72-6.28,6.27.03,3.41,2.69,6.15,6.03,6.21,3.49.06,6.41-2.7,6.47-6.15Z"/>
    <path class="cls-1" d="M102.86,32.36c-3.4.12-6,2.83-6,6.26,0,3.53,2.81,6.32,6.3,6.28,3.52-.04,6.26-2.89,6.18-6.42-.08-3.5-2.98-6.25-6.48-6.12Z"/>
    <path class="cls-1" d="M151.5,13.35c-3.4.02-6.12,2.77-6.11,6.18.01,3.4,2.79,6.13,6.2,6.09,3.47-.04,6.09-2.69,6.07-6.16-.02-3.42-2.74-6.13-6.16-6.11Z"/>
    <path class="cls-1" d="M219.65,103.57c.04-3.17-2.47-5.8-5.61-5.88-3.08-.08-5.84,2.5-5.98,5.58-.13,3.11,2.38,5.85,5.51,6.01,3.34.17,6.03-2.36,6.08-5.71Z"/>
    <path class="cls-1" d="M26,118c2.86-.07,6.04-3.14,5.94-5.73-.12-3.04-3.17-5.93-6.15-5.84-2.76.08-5.31,2.93-5.24,5.88.07,2.91,2.79,5.76,5.45,5.7Z"/>
    <path class="cls-1" d="M20.24,94.9c-3.16-.05-5.7,2.52-5.63,5.73.05,3.03,2.54,5.43,5.61,5.4,3.55-.04,5.57-2.07,5.55-5.6-.01-3-2.48-5.47-5.53-5.53Z"/>
    <path class="cls-1" d="M66.33,39.94c.07,3.06,2.54,5.42,5.66,5.39,3.05-.03,5.53-2.52,5.52-5.54,0-3.04-2.47-5.53-5.52-5.57-3.18-.05-5.74,2.54-5.67,5.73Z"/>
    <path class="cls-1" d="M107.81,63.48c.08,3.04,2.63,5.48,5.65,5.41,3.06-.06,5.51-2.54,5.51-5.58,0-3.13-2.72-5.73-5.84-5.59-3.01.14-5.41,2.73-5.32,5.76Z"/>
    <path class="cls-1" d="M220.83,80.64c-3.2-.11-5.84,2.4-5.85,5.56-.01,3.06,2.41,5.5,5.51,5.56,3.07.06,5.61-2.34,5.69-5.38.08-3.03-2.35-5.63-5.35-5.74Z"/>
    <path class="cls-1" d="M209.78,73.4c-3.16-.13-5.8,2.42-5.8,5.61,0,3.03,2.47,5.51,5.52,5.54,3.09.03,5.54-2.33,5.62-5.42.07-3.06-2.29-5.6-5.34-5.72Z"/>
    <path class="cls-1" d="M72.28,28.25c.11,3.03,2.68,5.46,5.7,5.39,3.03-.07,5.48-2.6,5.47-5.63-.02-3.02-2.53-5.53-5.56-5.55-3.17-.02-5.72,2.61-5.61,5.79Z"/>
    <path class="cls-1" d="M92.41,66.54c-.04,3.08,2.35,5.59,5.4,5.67,3.03.08,5.61-2.33,5.73-5.37.13-3.13-2.5-5.9-5.57-5.88-2.99.02-5.51,2.54-5.55,5.58Z"/>
    <path class="cls-1" d="M141.34,74.99c-.15,3.06,2.19,5.6,5.24,5.66,2.91.06,5.36-2.21,5.51-5.1.15-3-2.29-5.63-5.27-5.7-2.9-.06-5.34,2.22-5.48,5.14Z"/>
    <path class="cls-1" d="M160.97,86.64c2.95.14,5.47-2.1,5.64-5.01.18-2.94-2.03-5.48-4.95-5.69-3.01-.22-5.48,1.85-5.77,4.84-.3,3.08,1.98,5.71,5.07,5.86Z"/>
    <path class="cls-1" d="M33.69,150.7c-.03,2.75,2.33,5.19,5.06,5.21,2.76.03,5.13-2.31,5.16-5.11.03-2.85-2.18-5.1-5.06-5.14-2.85-.04-5.14,2.19-5.17,5.04Z"/>
    <path class="cls-1" d="M13.32,133.91c-.09,2.46,2.26,4.96,4.81,5.12,2.7.17,5.39-2.16,5.48-4.76.08-2.51-2.76-5.18-5.54-5.2-2.26-.02-4.66,2.43-4.74,4.84Z"/>
    <path class="cls-1" d="M152.64,51.01c-2.7.04-4.85,2.21-4.84,4.91,0,2.7,2.16,4.86,4.85,4.9,2.86.03,5.08-2.22,4.98-5.07-.09-2.72-2.25-4.78-4.99-4.74Z"/>
    <path class="cls-1" d="M191.37,71.68c-2.7.03-4.84,2.21-4.82,4.91.02,2.69,2.2,4.84,4.91,4.83,2.67-.01,4.84-2.23,4.81-4.91-.03-2.71-2.21-4.86-4.89-4.83Z"/>
    <path class="cls-1" d="M21.86,75.56c-2.42.03-4.48,2.13-4.46,4.54.02,2.38,2.17,4.46,4.57,4.43,2.47-.03,4.43-2.07,4.39-4.55-.03-2.5-2.03-4.47-4.51-4.43Z"/>
    <path class="cls-1" d="M156.06,88.58c.05-2.45-1.94-4.51-4.4-4.54-2.49-.04-4.5,1.89-4.54,4.36-.04,2.51,1.86,4.49,4.37,4.55,2.45.06,4.53-1.93,4.57-4.37Z"/>
    <path class="cls-1" d="M136.22,85.83c-.07,2.48,1.84,4.52,4.32,4.6,2.43.07,4.54-1.9,4.6-4.32.07-2.45-1.9-4.55-4.34-4.62-2.47-.08-4.52,1.87-4.59,4.35Z"/>
    <path class="cls-1" d="M132.11,75.39c-2.45-.04-4.53,1.93-4.6,4.36-.07,2.35,2,4.49,4.43,4.56,2.44.07,4.5-1.92,4.53-4.38.03-2.51-1.88-4.51-4.36-4.55Z"/>
    <path class="cls-1" d="M95.37,12.91c-2.54-.02-4.44,1.93-4.41,4.51.03,2.57,1.97,4.42,4.56,4.36,2.39-.05,4.24-1.93,4.29-4.34.05-2.5-1.92-4.52-4.44-4.53Z"/>
    <path class="cls-1" d="M176.9,127.6c.11,2.49,1.54,3.85,4.03,4.13,2.49-.17,3.95-1.49,4.18-3.95.2-2.14-1.93-4.39-4.09-4.52-2.19-.13-4.21,1.92-4.11,4.35Z"/>
    <path class="cls-1" d="M9.46,109.07c-.17,2.49,1.6,4.43,3.94,4.51,2.2.07,4.29-1.98,4.21-4.33-.09-2.49-1.49-4.05-3.99-4.09-2.5-.05-3.98,1.42-4.15,3.92Z"/>
    <path class="cls-1" d="M210.51,87.24c-2.35-.06-4.33,2.02-4.07,4.36.27,2.46,1.72,3.95,4.25,3.85,2.54-.1,3.72-1.76,3.97-4.17-.35-2.44-1.59-3.97-4.15-4.04Z"/>
    <path class="cls-1" d="M30.31,59.46c-2.47,0-3.96,1.5-4.14,3.99-.17,2.27,1.97,4.37,4.28,4.19,2.49-.2,3.79-1.7,4.01-4.21-.29-2.45-1.66-3.98-4.14-3.97Z"/>
    <path class="cls-1" d="M194.33,149.36c-.06,2.51,1.41,3.97,3.88,4.21,2.32.22,4.43-1.8,4.33-4.12-.11-2.54-1.69-3.76-4.13-4.12-2.37.29-4.03,1.49-4.08,4.03Z"/>
    <path class="cls-1" d="M221.63,71.4c-2.33-.24-4.39,1.79-4.29,4.16.09,2.56,1.65,3.78,4.05,4.14,2.49-.24,4.05-1.58,4.13-4.06.09-2.5-1.42-3.99-3.88-4.24Z"/>
    <path class="cls-1" d="M13.74,90.39c.26,2.49,1.8,3.95,4.26,3.84,2.46-.1,3.8-1.68,3.93-4.17-.22-2.55-1.66-3.91-4.12-4.05-2.29-.12-4.32,2.06-4.07,4.37Z"/>
    <path class="cls-1" d="M196.17,88.55c-.26,2.39,1.59,4.39,4.01,4.37,2.55-.02,3.85-1.48,4.2-3.92-.17-2.47-1.39-4.09-3.91-4.21-2.46-.11-4.03,1.24-4.3,3.76Z"/>
    <path class="cls-1" d="M227.77,98.09c2.47-.13,4.01-1.51,4.06-4.03.06-2.55-1.52-3.82-3.97-4.17-2.44.17-3.99,1.4-4.24,3.89-.23,2.27,1.84,4.43,4.15,4.31Z"/>
    <path class="cls-1" d="M113.6,10.19c-2.51.28-4.05,1.64-4.03,4.13.03,2.47,1.53,3.93,4.03,4.08,2.34.14,4.33-1.92,4.15-4.27-.19-2.53-1.73-3.75-4.15-3.94Z"/>
    <path class="cls-1" d="M195.79,38.02c.02-2.26-1.81-4.14-4.1-4.03-2.35.11-3.78,1.36-3.94,3.79-.15,2.3,1.58,4.16,3.87,4.23,2.22.07,4.15-1.78,4.17-4Z"/>
    <path class="cls-1" d="M52.53,67.33c0,2.42,1.49,3.6,3.83,3.88,2.31-.26,3.8-1.49,3.81-3.87.02-2.39-1.48-3.79-3.82-3.79s-3.82,1.35-3.82,3.78Z"/>
    <path class="cls-1" d="M54.77,139.42c-.35-1.6-1.68-2.99-2.46-4.29-2.98.71-4.8,1.56-4.9,4.05-.09,2.3,1.31,3.57,3.45,3.89,2.03.31,4.34-1.66,3.91-3.64Z"/>
    <path class="cls-1" d="M168.39,49.5c-1.52.26-2.82,1.8-4.22,2.77,0,.51,0,1.01,0,1.52,1.39,1,2.64,2.46,4.18,2.89,1.93.54,3.98-1.71,3.81-3.75-.2-2.25-1.64-3.8-3.77-3.43Z"/>
    <path class="cls-1" d="M67.15,24.5c-2.45.02-4.03,1.6-3.59,3.89.28,1.5,1.93,2.75,2.96,4.11.49-.01.99-.02,1.49-.03,1.01-1.39,2.64-2.68,2.87-4.19.36-2.3-1.31-3.81-3.73-3.78Z"/>
    <path class="cls-1" d="M137.11,38.59c0,2.24,1.5,3.82,3.67,3.45,1.52-.26,2.84-1.74,4.25-2.68l.03-1.56c-1.37-.98-2.63-2.55-4.14-2.83-2.36-.44-3.82,1.27-3.81,3.63Z"/>
    <path class="cls-1" d="M130.51,44.68c1.48-.3,2.7-1.92,4.04-2.95-.02-.51-.04-1.02-.06-1.54-1.42-.92-2.77-2.4-4.3-2.62-2.15-.3-3.59,1.32-3.57,3.56.02,2.41,1.59,4,3.88,3.54Z"/>
    <path class="cls-1" d="M166.61,72.45c.03,2.37,1.51,4.05,3.84,3.59,1.49-.3,2.72-1.91,4.06-2.94-.02-.52-.03-1.03-.05-1.54-1.41-.92-2.74-2.41-4.25-2.63-2.14-.32-3.61,1.28-3.59,3.52Z"/>
    <path class="cls-1" d="M144.51,43.17c-2.28.04-3.79,1.59-3.44,3.7.25,1.51,1.8,2.79,2.77,4.18.52,0,1.04,0,1.55.01.98-1.38,2.55-2.65,2.79-4.14.38-2.33-1.28-3.79-3.68-3.75Z"/>
    <path class="cls-1" d="M85.1,16.04c-2.14-.25-3.55,1.42-3.47,3.66.09,2.23,1.6,3.81,3.73,3.39,1.49-.3,2.73-1.89,4.08-2.91-.02-.51-.04-1.02-.06-1.53-1.42-.91-2.78-2.42-4.29-2.6Z"/>
    <path class="cls-1" d="M85.25,109.97c.48-.02.97-.04,1.46-.05.84-1.23,2.62-2.79,2.32-3.62-.51-1.45-2.14-3.14-3.58-3.46-2.01-.44-3.53,1.4-3.08,3.4.32,1.39,1.88,2.5,2.88,3.73Z"/>
    <path class="cls-1" d="M170.98,20.69c-2.09-.26-3.64,1.34-3.08,3.37.34,1.23,2.09,2.79,3.29,2.86,1.14.07,2.4-1.59,3.61-2.48-.02-.47-.03-.94-.04-1.41-1.25-.82-2.45-2.17-3.78-2.33Z"/>
    <path class="cls-1" d="M186.18,43.72c.17-1.1-1.42-2.47-2.23-3.72-.5,0-1,0-1.5-.01-.81,1.24-2.3,2.52-2.24,3.72.05,1.08,1.93,2.99,2.78,2.88,1.24-.16,3.01-1.7,3.19-2.87Z"/>
    <path class="cls-1" d="M179.09,71.55c1.12,1.05,2.12,2.74,3.38,2.95.94.16,2.2-1.59,4.16-3.17-2.09-1.33-3.39-2.8-4.46-2.65-1.14.16-2.07,1.85-3.09,2.87Z"/>
    <path class="cls-1" d="M114.74,29.6c-.78,1.17-2.27,2.43-2.14,3.48.14,1.13,1.81,2.08,2.8,3.1,1.01-1.01,2.68-1.94,2.82-3.06.14-1.07-1.33-2.34-2.09-3.51-.46,0-.93-.01-1.4-.02Z"/>
    <path class="cls-1" d="M52.09,82.93c-.74,1.2-2.19,2.51-2.02,3.56.19,1.12,1.9,1.99,2.96,2.97.97-1.06,2.62-2.07,2.71-3.19.09-1.06-1.47-2.25-2.31-3.38-.45.02-.89.03-1.34.05Z"/>
    <path class="cls-1" d="M93.75,28.89c1.07.12,2.32-1.39,3.5-2.18,0-.44,0-.89,0-1.33-1.19-.78-2.46-2.29-3.54-2.17-1.12.13-2.05,1.84-3.07,2.87,1.03,1,1.99,2.69,3.11,2.81Z"/>
    <path class="cls-1" d="M59.82,75.5c-1.04,0-2.77,1.69-2.9,2.8-.14,1.06,1.38,2.34,2.17,3.52.44,0,.88.01,1.32.02.81-1.16,2.33-2.4,2.22-3.47-.11-1.12-1.81-2.87-2.81-2.87Z"/>
    <path class="cls-1" d="M24.9,86.59c1.03,1.01,2,2.71,3.12,2.82,1.08.11,2.32-1.43,4.44-2.92-2.16-1.42-3.44-2.93-4.52-2.8-1.12.14-2.03,1.86-3.04,2.9Z"/>
    <path class="cls-1" d="M191.95,89.43c.91.17,2.16-1.4,3.97-2.7-1.74-1.39-2.91-3.02-3.84-2.88-1.19.17-2.18,1.74-3.26,2.71,1.03,1.02,1.94,2.64,3.12,2.87Z"/>
    <path class="cls-1" d="M66.95,47.74c-1.06-.11-2.3,1.47-4.37,2.96,2.09,1.41,3.35,2.94,4.41,2.8,1.13-.15,2.86-1.88,2.84-2.88-.03-1.05-1.75-2.76-2.87-2.88Z"/>
    <path class="cls-1" d="M203.43,73.36c.01-1.14-1.4-2.3-2.2-3.45-.46.02-.92.03-1.38.04-.74,1.2-2.2,2.54-2.02,3.57.2,1.09,1.91,2.46,3.09,2.6.77.09,2.49-1.77,2.5-2.77Z"/>
    <path class="cls-1" d="M194.34,95.46c-.27-1.17-1.88-2.03-2.91-3.03-.94.99-2.61,1.96-2.64,2.97-.03,1.12,1.44,2.29,2.88,4.32,1.39-2.09,2.87-3.37,2.67-4.26Z"/>
    <path class="cls-1" d="M171.45,47.59c.17,1.09,1.47,2.51,2.53,2.77.7.17,2.53-1.41,2.59-2.3.08-1.05-1.2-2.21-2.4-4.14-1.39,1.77-2.86,2.85-2.72,3.67Z"/>
    <path class="cls-1" d="M34.51,114.71c.27,1.05,1.64,1.83,2.54,2.72.82-.84,2.31-1.69,2.29-2.51-.03-1.03-1.29-2.02-2.55-3.77-1.15,1.7-2.47,2.83-2.28,3.56Z"/>
    <path class="cls-1" d="M211.22,113.01c.09-.61-1.56-2.16-2.12-2.02-1.08.26-2.41,1.27-2.73,2.26-.22.66,1.13,1.83,2.33,3.57,1.26-1.78,2.36-2.73,2.52-3.82Z"/>
    <path class="cls-1" d="M159.85,109.32c.86.89,1.61,2.24,2.63,2.5.7.17,1.78-1.19,3.47-2.44-1.69-1.09-2.67-2.22-3.5-2.12-.93.11-1.74,1.33-2.6,2.07Z"/>
    <path class="cls-1" d="M200,82.87c.94-.17,2.26-1.34,2.35-2.22.1-.83-1.16-1.81-2.39-3.51-1.1,1.79-2.18,2.77-2.13,3.71.04.76,1.54,2.14,2.17,2.02Z"/>
    <path class="cls-1" d="M187.46,142.91c.2.97,1.32,2.29,2.21,2.42.83.13,1.88-1.09,3.67-2.26-1.8-1.14-2.77-2.23-3.7-2.21-.8.03-2.3,1.49-2.18,2.04Z"/>
    <path class="cls-1" d="M121.31,102.83c.13.97,1.15,2.39,2.01,2.56.82.16,1.9-1.02,3.71-2.12-1.69-1.21-2.58-2.34-3.52-2.38-.76-.03-2.27,1.35-2.2,1.95Z"/>
    <path class="cls-1" d="M61.8,44.67c-.15.54,1.25,2.09,2.03,2.15.94.08,1.97-.94,3.84-1.96-1.73-1.28-2.69-2.54-3.54-2.47-.89.07-2.07,1.33-2.34,2.28Z"/>
    <path class="cls-1" d="M78.71,85.64c-1.83-1.11-2.9-2.27-3.71-2.11-.89.17-1.94,1.47-2.13,2.44-.11.52,1.42,1.93,2.22,1.94.92,0,1.85-1.09,3.63-2.27Z"/>
    <path class="cls-1" d="M82.63,86.38c.83.17,1.92-.95,3.78-2-1.72-1.25-2.61-2.38-3.54-2.41-.76-.04-2.29,1.3-2.22,1.89.11.95,1.13,2.34,1.98,2.52Z"/>
    <path class="cls-1" d="M164.4,19.2c.05-.95-.99-1.96-2.04-3.79-1.22,1.71-2.46,2.68-2.39,3.55.08.87,1.35,2.06,2.29,2.28.57.13,2.1-1.27,2.15-2.04Z"/>
    <path class="cls-1" d="M148.67,66.75c.91.09,1.93-.92,3.82-1.94-1.74-1.31-2.7-2.57-3.52-2.49-.88.09-2.05,1.34-2.28,2.28-.14.57,1.21,2.07,1.98,2.15Z"/>
    <path class="cls-1" d="M59.09,57.67c.18.95,1.42,1.71,2.2,2.55.77-.84,1.99-1.61,2.17-2.57.13-.71-1.12-1.66-2.19-3.09-1.07,1.44-2.31,2.41-2.18,3.11Z"/>
    <path class="cls-1" d="M80.14,42.02c-.94.26-2.15,1.44-2.23,2.32-.07.82,1.19,1.76,2.5,3.5,1-1.91,1.99-2.95,1.89-3.85-.09-.78-1.62-2.12-2.16-1.97Z"/>
    <path class="cls-1" d="M121.76,76.14c.95-.13,2.29-1.18,2.48-2.05.17-.8-.96-1.88-2.06-3.75-1.23,1.77-2.35,2.68-2.36,3.59,0,.79,1.36,2.3,1.93,2.21Z"/>
    <path class="cls-1" d="M76.29,47.77c-.96.26-2.21,1.38-2.32,2.27-.1.82,1.12,1.81,2.36,3.57,1.06-1.84,2.09-2.83,2.03-3.75-.06-.79-1.55-2.22-2.06-2.09Z"/>
    <path class="cls-1" d="M113.73,98.15c-.09.92.95,1.95,1.94,3.72,1.26-1.6,2.53-2.51,2.42-3.22-.14-.95-1.21-2.14-2.13-2.44-.53-.17-2.15,1.18-2.22,1.94Z"/>
    <path class="cls-1" d="M40.99,64.59c-.96.13-2.32,1.16-2.5,2.02-.17.81.97,1.89,2.05,3.75,1.23-1.74,2.34-2.64,2.36-3.56.02-.78-1.33-2.29-1.91-2.21Z"/>
    <path class="cls-1" d="M104.28,15.54c.79-.71,2.15-1.36,2.22-2.13.07-.91-.96-1.92-1.94-3.65-1.22,1.57-2.46,2.48-2.35,3.19.14.94,1.33,1.73,2.07,2.59Z"/>
    <path class="cls-1" d="M45.52,146.94c.83.14,1.84-.72,3.62-1.53-1.51-1.29-2.26-2.41-3.11-2.5-.68-.07-1.96,1.07-2.07,1.81-.1.68.89,2.09,1.56,2.21Z"/>
    <path class="cls-1" d="M177.77,51.25c.73.74,1.36,1.87,2.22,2.08.6.14,1.5-1,2.76-1.93-1.26-.92-2.06-1.94-2.79-1.9-.76.04-1.47,1.12-2.19,1.75Z"/>
    <path class="cls-1" d="M164.47,60.78c.06.73,1.2,1.89,1.89,1.91.68.02,1.86-1.1,1.96-1.83.09-.69-.95-1.53-1.84-2.79-.96,1.23-2.06,2.01-2,2.71Z"/>
    <path class="cls-1" d="M213.92,56.31c.07-.71-.98-1.53-1.91-2.81-.93,1.3-1.99,2.13-1.91,2.84.09.75,1.24,1.39,1.93,2.08.67-.7,1.81-1.35,1.89-2.11Z"/>
    <path class="cls-1" d="M174.28,41.82c.68.78,1.24,1.91,2.08,2.18.53.17,1.48-.96,2.73-1.86-1.18-.96-1.92-2.03-2.61-2.01-.75.03-1.46,1.08-2.2,1.68Z"/>
    <path class="cls-1" d="M162.72,53.57c-.08-.74-1.17-1.36-1.82-2.03-.7.74-1.78,1.41-1.97,2.26-.12.56,1.05,1.4,2.07,2.61.85-1.3,1.81-2.13,1.72-2.84Z"/>
    <path class="cls-1" d="M201.56,41.07c-1.51-.81-2.37-1.63-3.16-1.58-.59.04-1.55,1.27-1.51,1.9.05.64,1.17,1.72,1.77,1.68.79-.05,1.53-1,2.91-2.01Z"/>
    <path class="cls-1" d="M144.13,11.62c-.35-.12-1.5.92-1.55,1.5-.06.68.68,1.43,1.42,2.79.95-1.25,1.9-1.95,1.83-2.55-.07-.67-.98-1.5-1.7-1.74Z"/>
    <path class="cls-1" d="M127.94,23.01h0c-.39,0-.63-.2-.7-.53.07.34.31.53.7.53Z"/>
    <path class="cls-1" d="M33.12,130.64s0-.01,0-.02h0s0,.01,0,.02Z"/>
    <path class="cls-1" d="M33.51,131.24c.08.03.17.04.27.04h0c-.1,0-.19-.02-.27-.04Z"/>
  </g>
  <text class="cls-2" transform="translate(279.08 92.17)"><tspan x="0" y="0">AGR</tspan></text>
  <text class="cls-2" transform="translate(279.08 163.78)"><tspan x="0" y="0">FOUNDATION</tspan></text>
  <line class="cls-4" x1="257.1" y1="9.83" x2="257.1" y2="216.26"/>
</svg>